<?xml version="1.0" encoding="utf-8"?>
<!-- Generator: Adobe Illustrator 17.0.0, SVG Export Plug-In . SVG Version: 6.00 Build 0)  -->
<!DOCTYPE svg PUBLIC "-//W3C//DTD SVG 1.1//EN" "http://www.w3.org/Graphics/SVG/1.1/DTD/svg11.dtd">
<svg version="1.1" id="Capa_1" xmlns="http://www.w3.org/2000/svg" xmlns:xlink="http://www.w3.org/1999/xlink" x="0px" y="0px"
	 width="210px" height="98px" viewBox="0 0 440 138" style="enable-background:new 0 0 440 138;" xml:space="preserve">
<g id="ec">
	<g>
		<path style="fill:#939597;" d="M391.8,10.6c-24.4,0-44.2,19.8-44.2,44.2c0,19.6,12.8,36.2,30.5,42H4.2V99h386.3c0.4,0,0.8,0,1.2,0
			c24.4,0,44.2-19.8,44.2-44.2C436,30.5,416.2,10.6,391.8,10.6z M420.7,32.9c0.5,2.3,0.9,4.8,1,7.3c-3-2.8-6.4-5.3-10.1-7.5
			c0.8-7.6,0.2-13.5-1.9-16.8C415,19,418.9,24.9,420.7,32.9z M380.2,96.2c3.6-1.1,7.8-5.2,12-11.2c4,0.9,8.1,1.3,11.9,1.3l0,0h0.1
			c-6.4,6.4-13.8,10.2-21,10.2C382.3,96.5,381.3,96.4,380.2,96.2z M391.2,55.3l-4.3,11.6c-3.9-1.6-7.5-3.3-10.9-5
			c1-3.7,2.2-7.5,3.6-11.3L391.2,55.3z M379.8,49.7c1.5-3.9,3.1-7.7,4.7-11.1c3.7,1.1,7.5,2.4,11.3,4l-4.4,11.9L379.8,49.7z
			 M392.1,55.6l11.6,4.7c-1.4,3.8-3,7.5-4.6,10.9c-3.7-1.1-7.4-2.4-11.2-3.9L392.1,55.6z M392.4,54.7l4.4-11.9
			c3.8,1.6,7.4,3.2,10.8,5c-1,3.7-2.2,7.6-3.6,11.5v0.1L392.4,54.7z M397.2,41.9l4.8-13c0.1,0,0.2,0.1,0.3,0.1
			c2.9,1.2,5.6,2.5,8.2,4c-0.5,4.2-1.3,8.8-2.6,13.8C404.6,45.1,401,43.5,397.2,41.9z M396.3,41.6c-3.8-1.5-7.6-2.8-11.3-3.9
			c2.2-4.4,4.5-8.5,6.8-11.9c3.1,0.7,6.2,1.6,9.3,2.8L396.3,41.6z M384.1,37.3c-4.7-1.4-9.1-2.4-13.2-3c2.2-3.7,4.7-7.1,7.4-10
			c0.4,0,0.8,0,1.1,0c3.7,0,7.5,0.4,11.4,1.2C388.5,28.9,386.2,32.9,384.1,37.3z M383.6,38.2c-1.7,3.5-3.2,7.2-4.7,11.1l-12.8-5.2
			c1.2-3.1,2.6-6.1,4.2-8.9C374.4,35.8,378.9,36.9,383.6,38.2z M378.6,50.2c-1.4,3.8-2.6,7.6-3.6,11.2c-4.5-2.4-8.5-4.8-11.9-7.3
			c0.6-2.9,1.5-5.9,2.5-8.8c0-0.1,0.1-0.2,0.1-0.3L378.6,50.2z M374.8,62.4c-1.3,4.9-2.2,9.5-2.7,13.6c-3.9-2.3-7.3-5-10.3-7.9
			c-0.1-4.1,0.2-8.5,1.1-12.9C366.3,57.6,370.3,60.1,374.8,62.4z M375.7,62.8c3.4,1.7,7,3.4,10.8,5l0,0l-4.8,13
			c-0.1-0.1-0.3-0.1-0.4-0.2c-2.9-1.2-5.6-2.5-8.2-4C373.5,72.4,374.4,67.8,375.7,62.8z M387.5,68.2c3.8,1.5,7.5,2.8,11.1,3.9
			c-2.2,4.4-4.5,8.4-6.8,11.8c-3.1-0.7-6.1-1.6-9.2-2.8L387.5,68.2z M404.2,85.3L404.2,85.3c-3.7,0-7.5-0.4-11.3-1.2
			c2.3-3.4,4.6-7.4,6.7-11.8c4.7,1.4,9.1,2.4,13.2,3c-2.2,3.7-4.7,7.1-7.4,10C404.9,85.3,404.6,85.3,404.2,85.3z M400,71.5
			c1.6-3.4,3.2-7,4.6-10.8l12.8,5.2c-1.2,3-2.5,5.9-4.1,8.6C409.2,73.8,404.7,72.8,400,71.5z M404.9,59.8L404.9,59.8
			c1.4-4,2.6-7.8,3.6-11.5c4.5,2.4,8.5,4.8,11.9,7.3c-0.6,2.9-1.5,5.9-2.5,8.8c-0.1,0.2-0.1,0.3-0.2,0.5L404.9,59.8z M408.8,47.3
			c1.3-4.9,2.2-9.5,2.7-13.6c3.8,2.3,7.3,5,10.3,7.9c0.1,4.2-0.2,8.5-1.1,13C417.3,52.1,413.3,49.6,408.8,47.3z M407.3,14.7
			c3.1,1.9,4.2,8.4,3.3,17.3c-2.5-1.4-5.2-2.7-8-3.9c-0.1,0-0.2-0.1-0.3-0.1L407.3,14.7L407.3,14.7z M405.7,14.1
			c0.2,0.1,0.4,0.2,0.6,0.2l-4.9,13.3c-3-1.1-6-2.1-9-2.8c4.7-6.7,9.3-10.8,12.9-10.8C405.4,14.1,405.6,14.1,405.7,14.1z
			 M403.4,13.5c-3.6,1.1-7.8,5.2-12,11.2c-4-0.9-8-1.3-11.9-1.3h-0.1c6.4-6.4,13.8-10.2,21-10.2C401.3,13.2,402.3,13.3,403.4,13.5z
			 M391.8,11.8c2.3,0,4.5,0.2,6.6,0.6c-7.1,0.6-14.3,4.6-20.5,11.1c-9.3,0.3-17,3-22,7.7C363.6,19.5,376.8,11.8,391.8,11.8z
			 M377,24.4c-2.6,2.9-5,6.2-7.2,9.8c-2.5-0.3-4.9-0.5-7.1-0.5c-4.1,0-7.2,0.6-9.3,1.8C357.7,29,366.1,24.9,377,24.4z M352.2,38
			c1.4-2.1,5.1-3.3,10.5-3.3c2,0,4.3,0.2,6.6,0.5c-1.5,2.7-2.9,5.6-4,8.6L352,38.4C352.1,38.3,352.1,38.1,352.2,38z M351.7,39.4
			C351.7,39.4,351.7,39.3,351.7,39.4l13.2,5.3c0,0.1-0.1,0.2-0.1,0.3c-1,2.8-1.9,5.7-2.5,8.5C355.1,48.1,351,43,351.7,39.4z
			 M350.9,41.9c1,3.7,5,8.2,11.2,12.7c-0.9,4.3-1.3,8.6-1.2,12.6C353.1,59.3,349.2,50.1,350.9,41.9z M348.7,54.8
			c0-2.8,0.3-5.6,0.8-8.2c0.3,7.4,4.5,15.2,11.3,22c0.4,9.5,3.3,17.7,8.4,22.9C357,83.9,348.7,70.4,348.7,54.8z M361.9,69.5
			c2.9,2.7,6.3,5.3,10.1,7.6c-0.8,7.6-0.2,13.5,1.9,16.8C366.7,89.6,362.5,80.5,361.9,69.5z M376.2,95c-3.1-1.9-4.1-8.4-3.3-17.3
			c2.5,1.4,5.2,2.7,8,3.9c0.2,0.1,0.3,0.1,0.5,0.2L376.5,95C376.4,95,376.3,95,376.2,95z M377.4,95.4l4.9-13.3
			c2.9,1.1,5.9,2,8.9,2.7c-4.7,6.7-9.3,10.8-12.9,10.8l0,0c-0.1,0-0.3,0-0.4,0C377.7,95.5,377.6,95.4,377.4,95.4z M391.8,97.9
			c-2.3,0-4.5-0.2-6.6-0.6c7.1-0.6,14.3-4.6,20.5-11.1c9.3-0.3,17-3,22-7.7C420,90.2,406.8,97.9,391.8,97.9z M406.6,85.3
			c2.6-2.9,5-6.2,7.2-9.8c2.5,0.3,4.9,0.5,7.1,0.5l0,0c4.1,0,7.2-0.6,9.3-1.8C425.9,80.7,417.4,84.7,406.6,85.3z M431.4,71.7
			c-1.4,2.1-5,3.3-10.5,3.3l0,0c-2,0-4.3-0.2-6.6-0.5c1.5-2.6,2.8-5.4,3.9-8.4l13.2,5.3C431.5,71.6,431.4,71.7,431.4,71.7z
			 M431.9,70.3c0,0.1-0.1,0.2-0.1,0.3l-13.2-5.3c0.1-0.2,0.2-0.4,0.2-0.6c1-2.8,1.9-5.7,2.5-8.5C428.5,61.6,432.6,66.7,431.9,70.3z
			 M432.7,67.8c-1-3.7-5-8.2-11.2-12.7c0.9-4.3,1.3-8.5,1.2-12.6c1.8,1.8,3.4,3.7,4.8,5.7C432.2,54.9,434,61.7,432.7,67.8z
			 M428.3,47.6c-1.6-2.3-3.5-4.5-5.6-6.5c-0.1-2.9-0.5-5.8-1.1-8.5c-1.4-6-3.9-10.9-7.3-14.4c12.3,7.6,20.5,21.2,20.5,36.6
			c0,2.8-0.3,5.4-0.8,8.1C433.8,58,431.9,52.7,428.3,47.6z"/>
		<g>
			<path style="fill:#006696;" d="M388.9,71.1c0.1-1.9-1.7-1.9-1.7-1.9c1-0.2-2.6-2.1-2.6-2.1c0.8-2.2-2.6-4.3-2.6-4.3
				c-0.9-3.5-2.6-3.6-2.6-3.6c-2.7,0.1-3.1-2-3.1-2c-0.9,0.6-2,0.1-2,0.1c1.2-0.8-4.5-1.3-4.5-1.3c0.1-4.5-1.8-4.1-1.8-4.1
				c0.2-2.2-1.7-3.2-1.7-3.2s-2.4,1.2-2.2-1.8c0.2-3,1.7-2.3,4.7-2.6s3.5,1.6,3.5,1.6c-0.1,3,1.1,2.2,1.1,2.2
				c0.1-2.4,1.5-3.7,1.5-3.7c0.6,0.8,1.6-0.7,1.6-0.7c0.1-1.8,3.2-2.4,3.2-2.4c1.5,0.7,2.3-0.1,2.3-0.1c0-1.2,2.1-1.6,2.1-1.6
				c0,2.3,2.2,0.6,2.2,0.6s1.5,0.4,2-0.3c0.6-0.7-2-1.1-2-1.1l-0.4-1.1c-1.7-1.3,0.4-0.6,0.4-0.6c0.3,0.8,1.7,1.3,1.7,1.3
				c1.2,1.3,4.5,1.3,4.5,1.3c-0.6-0.1-0.9-2.1-0.9-2.1c1.5-1.6,0.3-2.1,0.3-2.1c-2.2-0.1-0.2-1.5-0.2-1.5c-2.3,0.1-2-2.4-2-2.4
				c0.6-1.9-1-2.1-1-2.1c-1.7,1.1-1.9-0.5-1.9-0.5c-1.1-3.2-4.4-3.8-4.4-3.8c-1.9-1.4-1,1.2-1,1.2c-0.8,0.4-0.1,3.2-0.1,3.2
				s-1.9-0.2-1.7,1c0.2,1.3-1.1,0.6-1.1,0.6c0-2.9-2.2-3-2.2-3c-0.3-1.1-1.1-1.9-1.1-1.9c-2.5,0.3-0.5-3.9,1.4-4.2
				c1.9-0.3,1.6-1.1,1.6-1.1l4.6-0.6c1.5-3.3-3.8-2.6-3.8-2.6c-0.9-1.2-1.7-2.6-2.2-2.8c-0.5-0.1-1.5,1.2-1.5,1.2l-2.9-0.5
				c-8.1,4-14.9,10.5-19.3,18.8c0.8,1,1.4,3.3,1.4,3.3l0.7,2.3c0,0,0.2,2.7,1.8,4.5c1.6,1.8,0.1-2.2,0.1-2.2
				c0.6-1.3-0.4-2.2-0.4-2.2c0.6-1.7,1.3,1.2,1.3,1.2c0.2,1.6,1.5,4,1.5,4l0.7,3.7l1.4,0.7c1.5,2.2,3.7,2,3.7,2.7
				c-0.1,0.7,2.3,4.1,3.8,5.3c1.5,1.1,0.5,3.3,0.5,3.3c-2.4,0.4-2.4,3.9-2.4,3.9c-1.4,1.2,0,3.3,0,3.3s-1.7,0.5,0.8,2.8s1,3.9,1,3.9
				l-1,3.3c-2.1-1-2.9,5-2.9,5c-3.3,3.5-1.2,3.8-1.2,3.8c-0.4,0-0.7,0.9-0.8,1.5c1,0.9,2.1,1.7,3.2,2.5l0.3-1.2
				c2,0.2,2.1-2.5,2.1-2.5c3,1,5.5-1.5,5.5-1.5l1,0.3l0.3-1.3c1.6,0.1,4-1.7,4-1.7c0.5-1.7,1.6-0.7,1.6-0.7c0-0.5,1.3-1.5,1.3-1.5
				c3.5-0.5,3.7-1.5,3.7-1.5s2.3-2.9,4.8-4.7C393.3,72.7,388.9,71.1,388.9,71.1z"/>
			<path style="fill:#006696;" d="M370.8,49.3c0,0,1.3-0.6,2.5,0.3c1.2,0.9,3.7,3.8,1.1,2.7l-1.8-1.6
				C372.6,50.8,371.3,49.4,370.8,49.3z"/>
			<path style="fill:#006696;" d="M379.3,21.8c1.9,1-1,1.7-0.2,0.2"/>
			<path style="fill:#006696;" d="M378.1,23.9c0.2,0.3,0.5,0.5,0.9,0.5c0,1.1-1.1,0.6-1.7,0.3c0.1-0.3,0.4-0.5,0.7-0.6"/>
			<path style="fill:#006696;" d="M380,24.8c0.3,0.2,0.5,0.4,0.5,0.7c-0.8,0.2-1.2-0.3-0.8-1.1c0,0.4,0.3,0.2,0.5,0.4"/>
			<path style="fill:#006696;" d="M386.1,18.8c-0.1,0.3-0.1,0.5,0,0.7c1.1-0.9,1,0.9,0.4,1.4c-0.5,0.4-2.4,0.2-1.3,1.4
				c-0.3,0.1-0.4,0.4-0.7,0.5c0.1,0.8,0.7,0.5,1.2,0.9c0.7,0.5,0.4,0.5,0.8,1.2c0.3,0.5,1.6,1.5,1.2,2c0.7,0.3,1.4,0,2-0.4
				c-0.7-0.5-1-1.8-0.6-2.6c0.9,0.2,2.6,0.1,2.1,1.3c0.3-0.2,0.5-0.5,0.5-0.9c0.4,0.2,0.8,0.4,1.3,0.4c-0.4-0.3-0.5-0.7-0.8-1
				s-0.8-0.4-1.1-0.7c-0.2-0.2-0.5-0.5-0.7-0.7c-0.4-0.5-0.2-0.3-0.4-0.9c-0.1-0.5,0.1-0.6-0.3-1.2c-0.2-0.2-0.7-0.5-0.9-0.6
				c-0.9-0.5-1-0.9-1.7-1.6c-0.3,0.3-0.5,0.3-0.8,0.7"/>
			<path style="fill:#006696;" d="M379.2,13.1c0.1,0,0.1-0.1,0.1-0.1c-0.3,1-0.7,2-0.7,3c0.6-0.2,1.3-0.3,1.7,0.2
				c0.1-0.2,0.3-0.5,0.3-0.7c0.4,0.6,2.9,3.3,2.9,1c-0.4-0.5-1.1-1.1-1.1-1.8c0.5-0.6,2.7-0.9,3.5-0.9c-0.3-1-0.8-1.5-1-2.4
				c-2,0.3-4,0.8-5.9,1.4C379,12.9,379.1,13,379.2,13.1z"/>
			<path style="fill:#006696;" d="M397,23.5c0,0.1,0,0.3,0.1,0.4C397,23.7,397,23.6,397,23.5z M403,12.3c-4.3-1.1-8.5-1.6-12.7-1.4
				c-0.2,0.8,1.2,1.6,2,1.5c0.1,0.7-0.4,1-0.1,1.8c0.3,0.7,0.8,0.8,1.4,1.1c1.2,0.5,2.9,0.8,3.3,2c0.1,0.3-0.1,0.7,0,1
				s0.4,0.5,0.4,0.7c0.1,0.6,0.2,1.3,0,1.9s-0.7,0.8-0.8,1.5c-0.1,0.6,0.3,0.7,0.4,1.1c0-0.5,0.3-0.9,0.5-1.5c0.1,0,0.4,0.3,0.5,0.4
				c-0.2,0.5-0.2,1-0.2,1.5c1.4,0.2,0.8,1.1-0.1,1.3c-0.2-0.2-0.4-0.2-0.6-0.2c-0.5,0.9,0,1.7-0.1,2.5c-0.1,1-0.7,2.1-0.1,3.1
				c0.3,0.6,1.4,1.2,2,1.7c0.5,0.5,0.5,0.6,1.1,0.7c0.6,0.1,1.3-0.3,1.8-0.6c0.7-0.6,1.2-1.6,2-2.1c1.1-0.7,1.8,0,3,0.2
				c0.9,0.1,1.5-0.6,2.4-0.8c0.9-0.2,2.3-0.3,3.2-0.3c0.6,0,1.1,0.5,1.5-0.1s-0.8-1,0.3-1.5c0.8-0.3,1.1,0.7,1.5-0.3
				c0.2-0.6-0.5-1.1,0.1-1.8c0.9,0.2,2-0.7,2.2-1.5c0.1-0.4-0.3-1.1,0-1.5c0.5-0.5,0.9,0.1,1.3,0.1c0.6-0.1,1.2-0.5,1.6-1.1
				C415.7,17.3,409.7,14.1,403,12.3z"/>
			<path style="fill:#006696;" d="M389.8,40c1.2,0.3,0.2,1.5,0.7,2.3c0.5-0.3,0.8-0.7,1.3-0.7s1.2,0.3,1.7,0.4
				c0.4-0.7-0.8-1-0.8-1.9c-1,0.5-2-0.5-2.7,0"/>
			<path style="fill:#006696;" d="M376.7,52.7c0,0,1.9,1,0.8,1.3c-0.4,0.1-1.3-0.7-1.9-0.6c0.6,0.2,0.9-0.3,0.9-0.8"/>
			<path style="fill:#006696;" d="M378.8,54c0.3,0,0.6,0.2,0.9,0.3c0,0.5-0.2,0.9-0.5,1.2c-0.5-0.3-0.8-0.9-0.5-1.4"/>
			<path style="fill:#006696;" d="M427.9,44.1c1.3,0.3,1.3,0.3,1.2,1.7c-0.1,1.6,0.3,1.3,1.6,0.9c1.1-0.3,1.7-0.3,2.2-1.4
				c0.2-0.4,0.1-0.8,0.3-1.2c0.3-0.7,0.4-0.5,0.8-0.9c0.1-0.1,0.1-0.1,0.2-0.2c-0.5-1.6-1-3.2-1.7-4.8c-0.6,0.5-0.5,1.2-2,0.5
				c-0.1,0.8-1.6,2.5-2.2,1.6c-0.6,0.3-1.8,1.1-1.9,1.8c-0.2,0.6,0.1,1.1,0.5,1.6C427.3,44.3,427,43.9,427.9,44.1z"/>
			<path style="fill:#006696;" d="M417.4,43.5c1,0.1,0.7,1.6,1.5,2.1c0,0.2,0,0.4-0.1,0.5c-1.1-0.2-1.6,0.8-2.8,0.6
				c0.6-0.8,0.5-2.8,1.5-3"/>
			<path style="fill:#006696;" d="M425.6,58.3c0.1,0.9,0.9,0.7,1.6,0.3c0.2-0.1,0.6-0.2,0.7-0.3s0-0.5,0.2-0.6
				c0.3-0.2,0.2-0.7,0.8-0.3c1,0.7-0.4,4.2,1.8,3.5c0.8-0.2,0.7-1,1.6-1.4c0.7-0.3,1.8,0,2.5,0c0.1-0.4-0.2-1.2-0.1-1.6
				c0.2-0.3,0.6-0.4,1.1-0.6c0.2-3.5,0-7-0.6-10.4c-0.3,0-0.6,0-0.8,0.1c-0.5,0.2-0.4,0.3-0.9,0.7c-0.7,0.6-1.1,1-2.1,1
				c-0.8,0-1.6-0.2-2.2-0.7c-0.5-0.4-1.2-2.1-1.9-2.3c-0.6-0.1-1.7,1.2-2.3,1.5c-0.8,0.3-1.8,0.5-2.6,0.8c-1,0.4-1.6,0.5-2.6,0.5
				c-0.7,0-2.3,0.1-1.6,1.3c0.1,0,0.2-0.1,0.3-0.1c0,0.6,0.1,0.9-0.2,1.5c-0.2,0.4-0.9,0.5-1.1,1c-0.6-0.6-1.7-0.4-2.1-1.2
				c-1.1,1.1-2.1,2.1-2.5,3.8c1,0.3,1.4,1.5,2.3,1.8c0.7,0.3,2.4,0.1,3.2-0.1c0.3-0.1,1.1-0.5,1.4-0.8c0.5-0.3,0.6-1.1,0.9-1.3
				c0.5-0.3,1,0.1,1.5,0.1c0.7,0,1.2-0.2,1.9-0.5c0.6,0.6,1.4,0.9,1.9,1.7C426.1,56.6,425.4,57.3,425.6,58.3z"/>
			<path style="fill:#006696;" d="M435.4,60.4c-0.2,0.2-0.3,0.3-0.6,0.4c-0.6,0.3-1.5-0.1-2.1,0c-0.9,0.1-2.7,0.7-2.7,1.9
				c0.5,0.3,0.9,0.5,1.4,0.2c-0.1-0.2,0-0.7-0.1-0.9c0.9,0,0.3,0.5,0.6,0.9c0.4,0.4,0.8,0.4,1.2,0.7c0.5,0.2,1,0.6,1.5,0.7
				C435,63.1,435.2,61.8,435.4,60.4z"/>
			<path style="fill:#006696;" d="M433.7,68c-0.3-0.8-0.3-1.8-0.8-2.6c-0.7-1-1.7-1.5-2.7-1.3c-1.1,0.2-1.8,0.6-2.9,0
				c-0.4-0.2-0.6-0.6-1.2-0.8c-0.8-0.4-0.7-0.2-1.3-1c-0.5-0.6-1.4-1.6-1.7-2.4c-0.2-0.9,0.3-2-1.1-2.3c-0.2,0-1.1,0.1-1.4,0.1
				c-0.5,0-0.9-0.1-1.4-0.2c-1.1-0.2-2.1,0-3.2-0.1c-1.2-0.1-1.8-0.7-3-0.1c-0.4,0.1-1.3,0.4-1.6,0.6c-0.4,0.3-0.6,1.1-1,1.5
				c-0.3-0.1-1.3-0.3-1.6-0.2c-0.7,0.2-0.7,0.7-1.1,1.2c-0.8,0.9-1.9,1.5-2.8,2.3c0.5,1.1,0,1.4-0.4,2.4c-0.5,1.2-0.5,1.7,0.1,2.8
				c0.5,0.9,0.5,2.1,1,2.9c0.3,0.5,0.7,0.7,1,1.1c0.2,0.3,0.1,0.8,0.4,1.2c0.6,0.7,1.9,0.8,2.6,1c0.4,0.1,0.5,0.5,1.1,0.3
				c0.7-0.2,0.8-0.7,1.5-0.8c0.4,0,1.1,0.4,1.4,0.6c0.1,0.1-0.1,0.4,0.1,0.6s0.5,0.1,0.8,0.3c0.5,0.4,2,1.1,1.9,1.9
				c0,0.1-0.6,0.8-0.7,0.9c-0.4,0.4-0.6,0.5-1,1.1c-0.5,0.6-0.5,0.3-0.5,1.1c0,0.2,0.2,1.1,0.2,1.2c0.3,1.1,0.9,1.5,1,2.6
				s0,1.7-0.9,2.4c-1,1-0.9,1.5-1.1,2.9c-0.1,0.9-1,2-1.1,3c0,0.5,0.1,0.9,0.1,1.3C422.3,88.4,430.1,79.4,433.7,68z"/>
		</g>
		<g>
			<polygon style="fill:#006696;" points="4.8,33.6 43.3,33.6 43.3,44.5 18.4,44.5 18.4,55.2 39.9,55.2 39.9,65.7 18.4,65.7 
				18.4,85.9 4.8,85.9 			"/>
			<path style="fill:#006696;" d="M94.7,64.3c0,15.2-7,22.7-22.8,22.7s-22.8-7.5-22.8-22.7V33.6h13.6v31.5c0,6.7,2.5,10.2,9.2,10.2
				s9.2-3.4,9.2-10.2V33.6h13.6L94.7,64.3L94.7,64.3z"/>
			<polygon style="fill:#006696;" points="103.6,33.6 117.6,33.6 135.8,65.8 135.9,65.8 135.9,33.6 148.7,33.6 148.7,85.9 
				134.7,85.9 116.6,53.3 116.4,53.3 116.4,85.9 103.6,85.9 			"/>
			<rect x="158" y="33.6" style="fill:#006696;" width="13.6" height="52.3"/>
			<path style="fill:#006696;" d="M181.1,33.6h24.5c9-0.1,18.9,2.2,18.9,13.1c0,4.7-2.8,8.5-6.9,10.6c5.6,1.6,9,6.4,9,12.4
				c0,12.4-9.2,16.3-20.4,16.3h-25.1V33.6z M194.7,54.2h10.5c2.3,0,5.6-1.2,5.6-5s-2.7-5-5.6-5h-10.5V54.2z M194.7,74.9h10.9
				c4.3,0,7.3-1.5,7.3-5.9c0-4.6-3.2-6.2-7.3-6.2h-10.9V74.9z"/>
			<polygon style="fill:#006696;" points="233.9,33.6 275.6,33.6 275.6,44.5 247.6,44.5 247.6,53.6 273.2,53.6 273.2,64.2 
				247.6,64.2 247.6,74.1 276.3,74.1 276.3,85.9 233.9,85.9 			"/>
			<path style="fill:#006696;" d="M284.1,33.6h26.6c9.2,0,18.3,4.2,18.3,14.7c0,5.6-2.7,11-8.2,13.1v0.1c5.6,1.3,7.2,7.5,7.6,12.5
				c0.1,2.2,0.4,9.9,2.2,11.8h-13.5c-1.2-1.8-1.4-6.9-1.5-8.4c-0.4-5.3-1.2-10.7-7.6-10.7h-10.3v19h-13.6V33.6L284.1,33.6z
				 M297.7,56.3h11.4c4.1,0,6.3-2.2,6.3-6.2c0-3.9-3.1-5.6-6.9-5.6h-10.8V56.3z"/>
		</g>
	</g>
</g>
</svg>
