<?xml version="1.0" encoding="utf-8"?>
<!-- Generator: Adobe Illustrator 17.0.0, SVG Export Plug-In . SVG Version: 6.00 Build 0)  -->
<!DOCTYPE svg PUBLIC "-//W3C//DTD SVG 1.1//EN" "http://www.w3.org/Graphics/SVG/1.1/DTD/svg11.dtd">
<svg version="1.1" id="Capa_1" xmlns="http://www.w3.org/2000/svg" xmlns:xlink="http://www.w3.org/1999/xlink" x="0px" y="0px"
	 width="440px" height="138px" viewBox="0 0 440 138" style="enable-background:new 0 0 440 138;" xml:space="preserve">
<g id="es">
	<g id="Capa_1_1_" style="display:none;">
		<g style="display:inline;">
			<g>
				<g>
					<g>
						<g>
							<g>
								<defs>
									<path id="SVGID_1_" d="M404.7,99.5c-7.7-0.4-16.7-2.7-28.6-13.4c-8.3-7.5-12.4-16.9-12.4-27.9s4.5-23.1,12.4-30.9
										c8-7.8,18.7-12.2,30-12.2c11.2,0,22,4.4,30,12.2s12.4,18.4,12.4,29.4s-4.5,21.6-12.4,29.4c-8,7.8-16.8,13.7-28,13.7"/>
								</defs>
								<clipPath id="SVGID_2_">
									<use xlink:href="#SVGID_1_"  style="overflow:visible;"/>
								</clipPath>
								<g style="clip-path:url(#SVGID_2_);">
									<line style="fill:none;" x1="55.9" y1="98.8" x2="404.9" y2="98.8"/>
								</g>
							</g>
						</g>
					</g>
				</g>
				<g>
					<g>
						<g>
							<g>
								<defs>
									<path id="SVGID_3_" d="M404.7,99.5c-7.7-0.4-16.7-2.7-28.6-13.4c-8.3-7.5-12.4-16.9-12.4-27.9s4.5-23.1,12.4-30.9
										c8-7.8,18.7-12.2,30-12.2c11.2,0,22,4.4,30,12.2s12.4,18.4,12.4,29.4s-4.5,21.6-12.4,29.4c-8,7.8-16.8,13.7-28,13.7"/>
								</defs>
								<clipPath id="SVGID_4_">
									<use xlink:href="#SVGID_3_"  style="overflow:visible;"/>
								</clipPath>
								<g style="clip-path:url(#SVGID_4_);">
									<rect x="55.9" y="98.3" style="fill:#BFBFBF;" width="349" height="1"/>
								</g>
							</g>
						</g>
					</g>
				</g>
				<g>
					<g>
						<g>
							<g>
								<defs>
									<path id="SVGID_5_" d="M404.7,99.5c-7.7-0.4-16.7-2.7-28.6-13.4c-8.3-7.5-12.4-16.9-12.4-27.9s4.5-23.1,12.4-30.9
										c8-7.8,18.7-12.2,30-12.2c11.2,0,22,4.4,30,12.2s12.4,18.4,12.4,29.4s-4.5,21.6-12.4,29.4c-8,7.8-16.8,13.7-28,13.7"/>
								</defs>
								<clipPath id="SVGID_6_">
									<use xlink:href="#SVGID_5_"  style="overflow:visible;"/>
								</clipPath>
								<g style="clip-path:url(#SVGID_6_);">
									<path style="fill:#FFFFFF;" d="M445.7,58.2c0-21.9-17.8-39.7-39.8-39.7s-39.8,17.8-39.8,39.7s17.8,41.1,39.8,41.1
										C427.9,99.3,445.7,80.1,445.7,58.2"/>
								</g>
							</g>
						</g>
					</g>
				</g>
				<g>
					<g>
						<g>
							<g>
								<defs>
									<path id="SVGID_7_" d="M404.7,99.5c-7.7-0.4-16.7-2.7-28.6-13.4c-8.3-7.5-12.4-16.9-12.4-27.9s4.5-23.1,12.4-30.9
										c8-7.8,18.7-12.2,30-12.2c11.2,0,22,4.4,30,12.2s12.4,18.4,12.4,29.4s-4.5,21.6-12.4,29.4c-8,7.8-16.8,13.7-28,13.7"/>
								</defs>
								<clipPath id="SVGID_8_">
									<use xlink:href="#SVGID_7_"  style="overflow:visible;"/>
								</clipPath>
								<g style="clip-path:url(#SVGID_8_);">
									<path style="fill:#A6A6A6;" d="M405.8,99.3c-21.7,0-40-19.1-40-41.6c0-22.1,18-40.2,40.2-40.2c22.1,0,40.2,18,40.2,40.2
										c0,22.5-18.4,41.6-40.2,41.6H405.8z M406,18.3c-21.7,0-39.4,17.7-39.4,39.4c0,22.1,18,40.9,39.3,40.9h0.1
										c21.4-0.1,39.4-18.8,39.4-40.9C445.3,36,427.7,18.3,406,18.3z"/>
								</g>
							</g>
						</g>
					</g>
				</g>
				<g>
					<g>
						<g>
							<g>
								<defs>
									<path id="SVGID_9_" d="M404.7,99.5c-7.7-0.4-16.7-2.7-28.6-13.4c-8.3-7.5-12.4-16.9-12.4-27.9s4.5-23.1,12.4-30.9
										c8-7.8,18.7-12.2,30-12.2c11.2,0,22,4.4,30,12.2s12.4,18.4,12.4,29.4s-4.5,21.6-12.4,29.4c-8,7.8-16.8,13.7-28,13.7"/>
								</defs>
								<clipPath id="SVGID_10_">
									<use xlink:href="#SVGID_9_"  style="overflow:visible;"/>
								</clipPath>
								<g style="clip-path:url(#SVGID_10_);">
									<path style="fill:#BFBFBF;" d="M432.5,76.9L432.5,76.9c-8.3,0-19.7-2.7-31.3-7.5c-20.9-8.5-35.1-20.3-32.4-26.9
										c1.1-2.7,4.8-4.1,10.7-4.1c8.3,0,19.7,2.7,31.3,7.5c9.9,4,18.7,9,24.8,14c6.2,5.1,8.9,9.7,7.6,12.9
										C442.1,75.5,438.4,76.9,432.5,76.9z M379.4,39.2c-5.5,0-9,1.3-10,3.6c-2.5,6.1,11.9,17.7,32,25.9c11.6,4.7,22.9,7.4,31,7.4
										l0,0c5.5,0,9-1.3,10-3.6c1.2-2.8-1.5-7.2-7.4-12c-6.1-5-14.8-9.9-24.6-13.9C398.9,41.9,387.6,39.2,379.4,39.2z"/>
								</g>
							</g>
						</g>
					</g>
				</g>
				<g>
					<g>
						<g>
							<g>
								<defs>
									<path id="SVGID_11_" d="M404.7,99.5c-7.7-0.4-16.7-2.7-28.6-13.4c-8.3-7.5-12.4-16.9-12.4-27.9s4.5-23.1,12.4-30.9
										c8-7.8,18.7-12.2,30-12.2c11.2,0,22,4.4,30,12.2s12.4,18.4,12.4,29.4s-4.5,21.6-12.4,29.4c-8,7.8-16.8,13.7-28,13.7"/>
								</defs>
								<clipPath id="SVGID_12_">
									<use xlink:href="#SVGID_11_"  style="overflow:visible;"/>
								</clipPath>
								<g style="clip-path:url(#SVGID_12_);">
									<path style="fill:#A6A6A6;" d="M393.6,97.1L393.6,97.1c-0.5,0-1-0.1-1.4-0.2c-6.6-2.4-5.7-22.8,1.9-43.6
										c7-19.2,17.4-33.6,24.2-33.6c0.5,0,1.1,0.1,1.5,0.3c6.7,2.4,5.9,20.9-1.9,42.1C410.6,82,400.1,97.1,393.6,97.1z
										 M418.2,20.5c-6.4,0-16.7,14.5-23.5,33.1c-7.3,20-8.4,40.3-2.3,42.6c0.4,0.1,0.8,0.2,1.2,0.2c6.1,0,16.5-15.2,23.6-34.6
										c7.5-20.4,8.5-38.8,2.3-41.1C419.1,20.5,418.7,20.5,418.2,20.5z"/>
								</g>
							</g>
						</g>
					</g>
				</g>
				<g>
					<g>
						<g>
							<g>
								<defs>
									<path id="SVGID_13_" d="M404.7,99.5c-7.7-0.4-16.7-2.7-28.6-13.4c-8.3-7.5-12.4-16.9-12.4-27.9s4.5-23.1,12.4-30.9
										c8-7.8,18.7-12.2,30-12.2c11.2,0,22,4.4,30,12.2s12.4,18.4,12.4,29.4s-4.5,21.6-12.4,29.4c-8,7.8-16.8,13.7-28,13.7"/>
								</defs>
								<clipPath id="SVGID_14_">
									<use xlink:href="#SVGID_13_"  style="overflow:visible;"/>
								</clipPath>
								<g style="clip-path:url(#SVGID_14_);">
									<path style="fill:#A6A6A6;" d="M397.8,97.9L397.8,97.9c-2,0-3.9-0.3-5.7-1c-13.6-5-18.5-27-10.8-48.2
										c6.4-17.5,19.7-29.8,32.3-29.8c2.1,0,4.2,0.4,6.1,1.1c13.6,5,18.4,25.9,10.8,46.7C423.9,84.7,410.2,97.9,397.8,97.9z
										 M413.7,19.7c-12.3,0-25.2,12-31.5,29.3c-7.5,20.4-2.6,42.4,10.3,47.2c1.7,0.6,3.5,0.9,5.4,0.9c12,0,25.5-12.9,32-30.7
										c7.5-20.4,2.8-40.9-10.3-45.7C417.6,20,415.7,19.7,413.7,19.7z"/>
								</g>
							</g>
						</g>
					</g>
				</g>
				<g>
					<g>
						<g>
							<g>
								<defs>
									<path id="SVGID_15_" d="M404.7,99.5c-7.7-0.4-16.7-2.7-28.6-13.4c-8.3-7.5-12.4-16.9-12.4-27.9s4.5-23.1,12.4-30.9
										c8-7.8,18.7-12.2,30-12.2c11.2,0,22,4.4,30,12.2s12.4,18.4,12.4,29.4s-4.5,21.6-12.4,29.4c-8,7.8-16.8,13.7-28,13.7"/>
								</defs>
								<clipPath id="SVGID_16_">
									<use xlink:href="#SVGID_15_"  style="overflow:visible;"/>
								</clipPath>
								<g style="clip-path:url(#SVGID_16_);">
									<path style="fill:#A6A6A6;" d="M417.2,86.3L417.2,86.3c-6.9,0-14.2-1.5-21.2-4.3c-20.5-8.3-32.8-26-27.3-39.4
										c3.4-8.4,13.1-13.5,25.9-13.5c6.9,0,14.2,1.5,21.2,4.3c9.9,4,18.2,10.3,23.4,17.7c5.2,7.5,6.6,15.2,4,21.7
										C439.7,81.3,430,86.3,417.2,86.3z M394.7,29.8c-12.5,0-21.9,4.9-25.2,13c-5.3,13,6.8,30.2,26.9,38.4
										c6.9,2.8,14.1,4.3,20.9,4.3c12.5,0,21.9-4.9,25.2-13c2.5-6.3,1.2-13.7-3.9-20.9c-5.1-7.3-13.3-13.5-23-17.5
										C408.7,31.3,401.4,29.8,394.7,29.8z"/>
								</g>
							</g>
						</g>
					</g>
				</g>
				<g>
					<g>
						<g>
							<g>
								<defs>
									<path id="SVGID_17_" d="M404.7,99.5c-7.7-0.4-16.7-2.7-28.6-13.4c-8.3-7.5-12.4-16.9-12.4-27.9s4.5-23.1,12.4-30.9
										c8-7.8,18.7-12.2,30-12.2c11.2,0,22,4.4,30,12.2s12.4,18.4,12.4,29.4s-4.5,21.6-12.4,29.4c-8,7.8-16.8,13.7-28,13.7"/>
								</defs>
								<clipPath id="SVGID_18_">
									<use xlink:href="#SVGID_17_"  style="overflow:visible;"/>
								</clipPath>
								<g style="clip-path:url(#SVGID_18_);">
									
										<rect x="366.2" y="57.4" transform="matrix(0.9273 0.3743 -0.3743 0.9273 51.1578 -147.7669)" style="fill:#BFBFBF;" width="79.6" height="0.8"/>
								</g>
							</g>
						</g>
					</g>
				</g>
				<g>
					<g>
						<g>
							<g>
								<defs>
									<path id="SVGID_19_" d="M404.7,99.5c-7.7-0.4-16.7-2.7-28.6-13.4c-8.3-7.5-12.4-16.9-12.4-27.9s4.5-23.1,12.4-30.9
										c8-7.8,18.7-12.2,30-12.2c11.2,0,22,4.4,30,12.2s12.4,18.4,12.4,29.4s-4.5,21.6-12.4,29.4c-8,7.8-16.8,13.7-28,13.7"/>
								</defs>
								<clipPath id="SVGID_20_">
									<use xlink:href="#SVGID_19_"  style="overflow:visible;"/>
								</clipPath>
								<g style="clip-path:url(#SVGID_20_);">
									
										<rect x="405.6" y="18.1" transform="matrix(0.9401 0.341 -0.341 0.9401 44.3067 -134.9365)" style="fill:#A6A6A6;" width="0.8" height="80.9"/>
								</g>
							</g>
						</g>
					</g>
				</g>
				<g>
					<g>
						<g>
							<g>
								<defs>
									<path id="SVGID_21_" d="M404.7,99.5c-7.7-0.4-16.7-2.7-28.6-13.4c-8.3-7.5-12.4-16.9-12.4-27.9s4.5-23.1,12.4-30.9
										c8-7.8,18.7-12.2,30-12.2c11.2,0,22,4.4,30,12.2s12.4,18.4,12.4,29.4s-4.5,21.6-12.4,29.4c-8,7.8-16.8,13.7-28,13.7"/>
								</defs>
								<clipPath id="SVGID_22_">
									<use xlink:href="#SVGID_21_"  style="overflow:visible;"/>
								</clipPath>
								<g style="clip-path:url(#SVGID_22_);">
									<path style="fill:#00699E;" d="M403.2,72.5c0.1-1.7-1.5-1.7-1.5-1.7c0.9-0.2-2.3-1.9-2.3-1.9c0.7-2-2.4-3.9-2.4-3.9
										c-0.8-3.2-2.3-3.3-2.3-3.3c-2.5,0.1-2.8-1.8-2.8-1.8c-0.8,0.6-1.8,0.1-1.8,0.1c1.1-0.7-4.1-1.2-4.1-1.2
										c0.1-4.1-1.7-3.7-1.7-3.7c0.2-2-1.5-2.9-1.5-2.9s-2.2,1.1-2-1.6c0.2-2.7,1.6-2.1,4.3-2.4c2.7-0.3,3.1,1.5,3.1,1.5
										c-0.1,2.7,1,2,1,2c0.1-2.2,1.3-3.4,1.3-3.4c0.6,0.7,1.5-0.6,1.5-0.6c0.1-1.6,2.9-2.2,2.9-2.2c1.4,0.6,2.1-0.1,2.1-0.1
										c0-1.1,1.9-1.5,1.9-1.5c0,2.1,2,0.5,2,0.5s1.3,0.4,1.8-0.3c0.5-0.6-1.8-1-1.8-1l-0.4-1c-1.6-1.2,0.4-0.6,0.4-0.6
										c0.3,0.7,1.6,1.2,1.6,1.2c1.1,1.2,4.1,1.2,4.1,1.2c-0.5-0.1-0.8-1.9-0.8-1.9c1.4-1.5,0.3-1.9,0.3-1.9
										c-2-0.1-0.2-1.4-0.2-1.4c-2.1,0.1-1.9-2.1-1.9-2.1c0.6-1.7-0.9-1.9-0.9-1.9c-1.6,1-1.8-0.5-1.8-0.5c-1-2.9-4-3.5-4-3.5
										c-1.8-1.2-0.9,1.1-0.9,1.1c-0.8,0.4-0.1,2.9-0.1,2.9s-1.7-0.2-1.6,0.9c0.1,1.1-1,0.5-1,0.5c0-2.6-2-2.7-2-2.7
										c-0.3-1-1-1.7-1-1.7c-2.3,0.3-0.5-3.6,1.2-3.9s1.5-1,1.5-1l4.2-0.5c1.3-3-3.5-2.4-3.5-2.4c-0.8-1.1-1.6-2.4-2-2.5
										s-1.4,1.1-1.4,1.1l-2.6-0.5c-7.4,3.7-13.6,9.6-17.6,17.1c0.8,0.9,1.3,3,1.3,3l0.7,2.1c0,0,0.2,2.5,1.7,4.1s0.1-2,0.1-2
										c0.5-1.2-0.4-2-0.4-2c0.5-1.5,1.1,1.1,1.1,1.1c0.2,1.5,1.3,3.7,1.3,3.7l0.7,3.4l1.3,0.7c1.3,2,3.4,1.8,3.3,2.4
										c-0.1,0.6,2.1,3.8,3.5,4.8s0.4,3,0.4,3c-2.2,0.4-2.1,3.5-2.1,3.5c-1.3,1.1,0,3,0,3s-1.6,0.5,0.8,2.5c2.3,2,0.9,3.6,0.9,3.6
										l-0.9,3c-2-1-2.7,4.6-2.7,4.6c-3,3.2-1.1,3.5-1.1,3.5c-0.4,0-0.6,0.8-0.7,1.4c0.9,0.8,1.9,1.6,3,2.3l0.3-1.1
										c1.8,0.2,1.9-2.3,1.9-2.3c2.7,0.9,5-1.3,5-1.3l0.9,0.2l0.3-1.1c1.4,0,3.6-1.6,3.6-1.6c0.4-1.5,1.5-0.6,1.5-0.6
										c0-0.4,1.2-1.3,1.2-1.3c3.2-0.5,3.3-1.3,3.3-1.3s2.1-2.6,4.3-4.3C407.3,74,403.2,72.5,403.2,72.5"/>
								</g>
							</g>
						</g>
					</g>
				</g>
				<g>
					<g>
						<g>
							<g>
								<defs>
									<path id="SVGID_23_" d="M404.7,99.5c-7.7-0.4-16.7-2.7-28.6-13.4c-8.3-7.5-12.4-16.9-12.4-27.9s4.5-23.1,12.4-30.9
										c8-7.8,18.7-12.2,30-12.2c11.2,0,22,4.4,30,12.2s12.4,18.4,12.4,29.4s-4.5,21.6-12.4,29.4c-8,7.8-16.8,13.7-28,13.7"/>
								</defs>
								<clipPath id="SVGID_24_">
									<use xlink:href="#SVGID_23_"  style="overflow:visible;"/>
								</clipPath>
								<g style="clip-path:url(#SVGID_24_);">
									<path style="fill:#00699E;" d="M386.7,52.7c0,0,1.1-0.6,2.2,0.3c1.1,0.8,3.4,3.4,1,2.5l-1.6-1.4
										C388.4,54,387.2,52.7,386.7,52.7"/>
								</g>
							</g>
						</g>
					</g>
				</g>
				<g>
					<g>
						<g>
							<g>
								<defs>
									<path id="SVGID_25_" d="M404.7,99.5c-7.7-0.4-16.7-2.7-28.6-13.4c-8.3-7.5-12.4-16.9-12.4-27.9s4.5-23.1,12.4-30.9
										c8-7.8,18.7-12.2,30-12.2c11.2,0,22,4.4,30,12.2s12.4,18.4,12.4,29.4s-4.5,21.6-12.4,29.4c-8,7.8-16.8,13.7-28,13.7"/>
								</defs>
								<clipPath id="SVGID_26_">
									<use xlink:href="#SVGID_25_"  style="overflow:visible;"/>
								</clipPath>
								<g style="clip-path:url(#SVGID_26_);">
									<path style="fill:#00699E;" d="M394.5,27.6c1.7,0.9-0.9,1.5-0.2,0.2"/>
								</g>
							</g>
						</g>
					</g>
				</g>
				<g>
					<g>
						<g>
							<g>
								<defs>
									<path id="SVGID_27_" d="M404.7,99.5c-7.7-0.4-16.7-2.7-28.6-13.4c-8.3-7.5-12.4-16.9-12.4-27.9s4.5-23.1,12.4-30.9
										c8-7.8,18.7-12.2,30-12.2c11.2,0,22,4.4,30,12.2s12.4,18.4,12.4,29.4s-4.5,21.6-12.4,29.4c-8,7.8-16.8,13.7-28,13.7"/>
								</defs>
								<clipPath id="SVGID_28_">
									<use xlink:href="#SVGID_27_"  style="overflow:visible;"/>
								</clipPath>
								<g style="clip-path:url(#SVGID_28_);">
									<path style="fill:#00699E;" d="M393.4,29.5c0.2,0.3,0.5,0.4,0.9,0.5c0,1-1,0.6-1.6,0.3c0.1-0.3,0.3-0.5,0.7-0.5"/>
								</g>
							</g>
						</g>
					</g>
				</g>
				<g>
					<g>
						<g>
							<g>
								<defs>
									<path id="SVGID_29_" d="M404.7,99.5c-7.7-0.4-16.7-2.7-28.6-13.4c-8.3-7.5-12.4-16.9-12.4-27.9s4.5-23.1,12.4-30.9
										c8-7.8,18.7-12.2,30-12.2c11.2,0,22,4.4,30,12.2s12.4,18.4,12.4,29.4s-4.5,21.6-12.4,29.4c-8,7.8-16.8,13.7-28,13.7"/>
								</defs>
								<clipPath id="SVGID_30_">
									<use xlink:href="#SVGID_29_"  style="overflow:visible;"/>
								</clipPath>
								<g style="clip-path:url(#SVGID_30_);">
									<path style="fill:#00699E;" d="M395.1,30.3c0.3,0.2,0.5,0.3,0.5,0.7c-0.7,0.2-1.1-0.3-0.7-1c0,0.3,0.2,0.1,0.4,0.3"/>
								</g>
							</g>
						</g>
					</g>
				</g>
				<g>
					<g>
						<g>
							<g>
								<defs>
									<path id="SVGID_31_" d="M404.7,99.5c-7.7-0.4-16.7-2.7-28.6-13.4c-8.3-7.5-12.4-16.9-12.4-27.9s4.5-23.1,12.4-30.9
										c8-7.8,18.7-12.2,30-12.2c11.2,0,22,4.4,30,12.2s12.4,18.4,12.4,29.4s-4.5,21.6-12.4,29.4c-8,7.8-16.8,13.7-28,13.7"/>
								</defs>
								<clipPath id="SVGID_32_">
									<use xlink:href="#SVGID_31_"  style="overflow:visible;"/>
								</clipPath>
								<g style="clip-path:url(#SVGID_32_);">
									<path style="fill:#00699E;" d="M400.7,24.8c-0.1,0.2-0.1,0.4,0,0.6c1-0.9,0.9,0.8,0.4,1.2c-0.4,0.4-2.1,0.2-1.2,1.3
										c-0.2,0.1-0.4,0.4-0.6,0.5c0.1,0.8,0.6,0.4,1.1,0.8c0.6,0.4,0.4,0.5,0.7,1.1c0.3,0.5,1.5,1.4,1.1,1.8
										c0.6,0.3,1.3,0,1.8-0.4c-0.6-0.5-0.9-1.6-0.5-2.4c0.8,0.1,2.4,0.1,1.9,1.2c0.2-0.1,0.4-0.5,0.4-0.9
										c0.3,0.2,0.8,0.3,1.2,0.4c-0.4-0.2-0.4-0.7-0.7-0.9c-0.3-0.3-0.7-0.4-1-0.6c-0.2-0.2-0.5-0.4-0.6-0.7
										c-0.3-0.5-0.2-0.3-0.3-0.8c-0.1-0.5,0.1-0.6-0.3-1.1c-0.2-0.2-0.7-0.4-0.8-0.6c-0.8-0.5-0.9-0.8-1.6-1.5
										c-0.3,0.3-0.5,0.3-0.7,0.6"/>
								</g>
							</g>
						</g>
					</g>
				</g>
				<g>
					<g>
						<g>
							<g>
								<defs>
									<path id="SVGID_33_" d="M404.7,99.5c-7.7-0.4-16.7-2.7-28.6-13.4c-8.3-7.5-12.4-16.9-12.4-27.9s4.5-23.1,12.4-30.9
										c8-7.8,18.7-12.2,30-12.2c11.2,0,22,4.4,30,12.2s12.4,18.4,12.4,29.4s-4.5,21.6-12.4,29.4c-8,7.8-16.8,13.7-28,13.7"/>
								</defs>
								<clipPath id="SVGID_34_">
									<use xlink:href="#SVGID_33_"  style="overflow:visible;"/>
								</clipPath>
								<g style="clip-path:url(#SVGID_34_);">
									<path style="fill:#00699E;" d="M394.4,19.7l0.1-0.1c-0.2,0.9-0.6,1.8-0.7,2.7c0.5-0.2,1.2-0.3,1.5,0.2
										c0.1-0.2,0.3-0.4,0.3-0.7c0.3,0.5,2.7,3,2.6,0.9c-0.4-0.5-1-1-1-1.6c0.4-0.6,2.4-0.8,3.2-0.8c-0.3-0.9-0.7-1.3-0.9-2.2
										c-1.8,0.3-3.6,0.7-5.3,1.2C394.2,19.5,394.3,19.6,394.4,19.7"/>
								</g>
							</g>
						</g>
					</g>
				</g>
				<g>
					<g>
						<g>
							<g>
								<defs>
									<path id="SVGID_35_" d="M404.7,99.5c-7.7-0.4-16.7-2.7-28.6-13.4c-8.3-7.5-12.4-16.9-12.4-27.9s4.5-23.1,12.4-30.9
										c8-7.8,18.7-12.2,30-12.2c11.2,0,22,4.4,30,12.2s12.4,18.4,12.4,29.4s-4.5,21.6-12.4,29.4c-8,7.8-16.8,13.7-28,13.7"/>
								</defs>
								<clipPath id="SVGID_36_">
									<use xlink:href="#SVGID_35_"  style="overflow:visible;"/>
								</clipPath>
								<g style="clip-path:url(#SVGID_36_);">
									<path style="fill:#00699E;" d="M410.6,29.1c0,0.1,0,0.3,0.1,0.4C410.7,29.3,410.6,29.2,410.6,29.1 M416.1,19
										c-3.9-1-7.8-1.4-11.6-1.3c-0.2,0.8,1.1,1.4,1.8,1.4c0.1,0.7-0.3,0.9-0.1,1.6c0.2,0.7,0.7,0.7,1.3,1c1.1,0.4,2.7,0.7,3,1.8
										c0.1,0.3-0.1,0.6,0,0.9s0.3,0.5,0.4,0.7c0.1,0.6,0.2,1.2,0,1.7s-0.6,0.7-0.7,1.4c-0.1,0.6,0.2,0.7,0.4,1
										c0-0.4,0.3-0.9,0.4-1.3c0.1,0,0.3,0.3,0.4,0.3c-0.1,0.4-0.2,0.9-0.2,1.3c1.2,0.2,0.7,1-0.1,1.2c-0.2-0.1-0.3-0.1-0.5-0.2
										c-0.5,0.9,0,1.5-0.1,2.3c-0.1,0.9-0.6,1.9-0.1,2.8c0.3,0.5,1.2,1.1,1.8,1.6c0.5,0.4,0.4,0.6,1,0.6c0.6,0.1,1.2-0.2,1.6-0.6
										c0.6-0.5,1.1-1.5,1.8-1.9c1-0.6,1.6,0,2.7,0.1c0.9,0.1,1.4-0.5,2.2-0.7c0.8-0.2,2.1-0.3,2.9-0.2c0.5,0,1,0.4,1.4-0.1
										s-0.7-1,0.2-1.4c0.7-0.3,1,0.6,1.4-0.3c0.2-0.5-0.4-1,0.1-1.6c0.8,0.2,1.8-0.6,2-1.4c0.1-0.4-0.3-1,0-1.3
										c0.4-0.5,0.8,0.1,1.2,0.1c0.5,0,1.1-0.5,1.4-1C427.6,23.5,422.2,20.6,416.1,19"/>
								</g>
							</g>
						</g>
					</g>
				</g>
				<g>
					<g>
						<g>
							<g>
								<defs>
									<path id="SVGID_37_" d="M404.7,99.5c-7.7-0.4-16.7-2.7-28.6-13.4c-8.3-7.5-12.4-16.9-12.4-27.9s4.5-23.1,12.4-30.9
										c8-7.8,18.7-12.2,30-12.2c11.2,0,22,4.4,30,12.2s12.4,18.4,12.4,29.4s-4.5,21.6-12.4,29.4c-8,7.8-16.8,13.7-28,13.7"/>
								</defs>
								<clipPath id="SVGID_38_">
									<use xlink:href="#SVGID_37_"  style="overflow:visible;"/>
								</clipPath>
								<g style="clip-path:url(#SVGID_38_);">
									<path style="fill:#00699E;" d="M404.1,44.2c1.1,0.3,0.2,1.4,0.6,2.1c0.4-0.2,0.7-0.6,1.2-0.7c0.4,0,1.1,0.3,1.5,0.4
										c0.4-0.6-0.7-0.9-0.7-1.7c-0.9,0.5-1.8-0.4-2.4,0"/>
								</g>
							</g>
						</g>
					</g>
				</g>
				<g>
					<g>
						<g>
							<g>
								<defs>
									<path id="SVGID_39_" d="M404.7,99.5c-7.7-0.4-16.7-2.7-28.6-13.4c-8.3-7.5-12.4-16.9-12.4-27.9s4.5-23.1,12.4-30.9
										c8-7.8,18.7-12.2,30-12.2c11.2,0,22,4.4,30,12.2s12.4,18.4,12.4,29.4s-4.5,21.6-12.4,29.4c-8,7.8-16.8,13.7-28,13.7"/>
								</defs>
								<clipPath id="SVGID_40_">
									<use xlink:href="#SVGID_39_"  style="overflow:visible;"/>
								</clipPath>
								<g style="clip-path:url(#SVGID_40_);">
									<path style="fill:#00699E;" d="M392.1,55.8c0,0,1.7,0.9,0.7,1.2c-0.3,0.1-1.2-0.6-1.7-0.6c0.6,0.2,0.8-0.2,0.8-0.8"/>
								</g>
							</g>
						</g>
					</g>
				</g>
				<g>
					<g>
						<g>
							<g>
								<defs>
									<path id="SVGID_41_" d="M404.7,99.5c-7.7-0.4-16.7-2.7-28.6-13.4c-8.3-7.5-12.4-16.9-12.4-27.9s4.5-23.1,12.4-30.9
										c8-7.8,18.7-12.2,30-12.2c11.2,0,22,4.4,30,12.2s12.4,18.4,12.4,29.4s-4.5,21.6-12.4,29.4c-8,7.8-16.8,13.7-28,13.7"/>
								</defs>
								<clipPath id="SVGID_42_">
									<use xlink:href="#SVGID_41_"  style="overflow:visible;"/>
								</clipPath>
								<g style="clip-path:url(#SVGID_42_);">
									<path style="fill:#00699E;" d="M394,56.9c0.2,0,0.6,0.2,0.8,0.2c0,0.4-0.2,0.8-0.5,1.1c-0.5-0.3-0.7-0.8-0.4-1.3"/>
								</g>
							</g>
						</g>
					</g>
				</g>
				<g>
					<g>
						<g>
							<g>
								<defs>
									<path id="SVGID_43_" d="M404.7,99.5c-7.7-0.4-16.7-2.7-28.6-13.4c-8.3-7.5-12.4-16.9-12.4-27.9s4.5-23.1,12.4-30.9
										c8-7.8,18.7-12.2,30-12.2c11.2,0,22,4.4,30,12.2s12.4,18.4,12.4,29.4s-4.5,21.6-12.4,29.4c-8,7.8-16.8,13.7-28,13.7"/>
								</defs>
								<clipPath id="SVGID_44_">
									<use xlink:href="#SVGID_43_"  style="overflow:visible;"/>
								</clipPath>
								<g style="clip-path:url(#SVGID_44_);">
									<path style="fill:#00699E;" d="M438.8,47.9c1.2,0.2,1.2,0.3,1.1,1.6c-0.1,1.4,0.3,1.1,1.4,0.8c1-0.3,1.6-0.3,2-1.3
										c0.2-0.4,0.1-0.7,0.2-1.1c0.2-0.6,0.4-0.5,0.7-0.8c0.1-0.1,0.1-0.1,0.2-0.2c-0.4-1.5-0.9-2.9-1.5-4.4
										c-0.6,0.5-0.5,1.1-1.9,0.4c-0.1,0.8-1.4,2.3-2,1.4c-0.6,0.3-1.6,1-1.8,1.6c-0.1,0.5,0.1,1,0.4,1.4
										C438.2,48.1,438,47.7,438.8,47.9"/>
								</g>
							</g>
						</g>
					</g>
				</g>
				<g>
					<g>
						<g>
							<g>
								<defs>
									<path id="SVGID_45_" d="M404.7,99.5c-7.7-0.4-16.7-2.7-28.6-13.4c-8.3-7.5-12.4-16.9-12.4-27.9s4.5-23.1,12.4-30.9
										c8-7.8,18.7-12.2,30-12.2c11.2,0,22,4.4,30,12.2s12.4,18.4,12.4,29.4s-4.5,21.6-12.4,29.4c-8,7.8-16.8,13.7-28,13.7"/>
								</defs>
								<clipPath id="SVGID_46_">
									<use xlink:href="#SVGID_45_"  style="overflow:visible;"/>
								</clipPath>
								<g style="clip-path:url(#SVGID_46_);">
									<path style="fill:#00699E;" d="M429.2,47.4c0.9,0.1,0.6,1.4,1.3,1.9c0,0.2-0.1,0.3-0.1,0.5c-1-0.2-1.4,0.7-2.5,0.5
										c0.6-0.7,0.4-2.5,1.4-2.7"/>
								</g>
							</g>
						</g>
					</g>
				</g>
				<g>
					<g>
						<g>
							<g>
								<defs>
									<path id="SVGID_47_" d="M404.7,99.5c-7.7-0.4-16.7-2.7-28.6-13.4c-8.3-7.5-12.4-16.9-12.4-27.9s4.5-23.1,12.4-30.9
										c8-7.8,18.7-12.2,30-12.2c11.2,0,22,4.4,30,12.2s12.4,18.4,12.4,29.4s-4.5,21.6-12.4,29.4c-8,7.8-16.8,13.7-28,13.7"/>
								</defs>
								<clipPath id="SVGID_48_">
									<use xlink:href="#SVGID_47_"  style="overflow:visible;"/>
								</clipPath>
								<g style="clip-path:url(#SVGID_48_);">
									<path style="fill:#00699E;" d="M436.7,60.8c0.1,0.8,0.8,0.6,1.5,0.3c0.2-0.1,0.5-0.1,0.7-0.3c0.1-0.1,0-0.5,0.1-0.6
										c0.2-0.2,0.2-0.6,0.7-0.3c0.9,0.6-0.4,3.8,1.6,3.2c0.7-0.2,0.7-0.9,1.4-1.3c0.7-0.3,1.6,0,2.3,0c0.1-0.4-0.2-1.1-0.1-1.4
										c0.2-0.3,0.6-0.4,1-0.5c0.2-3.2,0-6.4-0.6-9.5c-0.3,0-0.5,0-0.7,0.1c-0.5,0.2-0.4,0.2-0.8,0.6c-0.6,0.6-1,0.9-1.9,0.9
										c-0.7,0-1.5-0.2-2-0.7c-0.5-0.4-1.1-1.9-1.7-2.1c-0.6-0.1-1.5,1.1-2.1,1.3c-0.7,0.3-1.6,0.4-2.4,0.7
										c-0.9,0.3-1.4,0.4-2.4,0.4c-0.6,0-2.1,0.1-1.5,1.2c0.1,0,0.2-0.1,0.3-0.1c0,0.5,0.1,0.9-0.1,1.3c-0.2,0.3-0.8,0.5-1,0.9
										c-0.5-0.6-1.5-0.3-1.9-1.1c-1,1-1.9,1.9-2.2,3.5c0.9,0.2,1.3,1.4,2.1,1.7c0.7,0.3,2.2,0.1,2.9,0c0.3-0.1,1-0.5,1.3-0.7
										c0.4-0.3,0.5-1,0.8-1.2c0.4-0.3,0.9,0.1,1.3,0.1c0.7,0,1.1-0.2,1.7-0.4c0.5,0.6,1.3,0.8,1.7,1.5
										C437.2,59.3,436.5,60,436.7,60.8"/>
								</g>
							</g>
						</g>
					</g>
				</g>
				<g>
					<g>
						<g>
							<g>
								<defs>
									<path id="SVGID_49_" d="M404.7,99.5c-7.7-0.4-16.7-2.7-28.6-13.4c-8.3-7.5-12.4-16.9-12.4-27.9s4.5-23.1,12.4-30.9
										c8-7.8,18.7-12.2,30-12.2c11.2,0,22,4.4,30,12.2s12.4,18.4,12.4,29.4s-4.5,21.6-12.4,29.4c-8,7.8-16.8,13.7-28,13.7"/>
								</defs>
								<clipPath id="SVGID_50_">
									<use xlink:href="#SVGID_49_"  style="overflow:visible;"/>
								</clipPath>
								<g style="clip-path:url(#SVGID_50_);">
									<path style="fill:#00699E;" d="M445.6,62.8c-0.2,0.1-0.3,0.3-0.5,0.4c-0.6,0.3-1.3,0-1.9,0c-0.8,0.1-2.4,0.6-2.4,1.8
										c0.4,0.2,0.8,0.4,1.3,0.1c-0.1-0.2,0-0.6-0.1-0.8c0.8,0,0.2,0.5,0.6,0.8c0.4,0.4,0.7,0.4,1.1,0.6s0.9,0.6,1.4,0.7
										C445.2,65.2,445.5,64,445.6,62.8"/>
								</g>
							</g>
						</g>
					</g>
				</g>
				<g>
					<g>
						<g>
							<g>
								<defs>
									<path id="SVGID_51_" d="M404.7,99.5c-7.7-0.4-16.7-2.7-28.6-13.4c-8.3-7.5-12.4-16.9-12.4-27.9s4.5-23.1,12.4-30.9
										c8-7.8,18.7-12.2,30-12.2c11.2,0,22,4.4,30,12.2s12.4,18.4,12.4,29.4s-4.5,21.6-12.4,29.4c-8,7.8-16.8,13.7-28,13.7"/>
								</defs>
								<clipPath id="SVGID_52_">
									<use xlink:href="#SVGID_51_"  style="overflow:visible;"/>
								</clipPath>
								<g style="clip-path:url(#SVGID_52_);">
									<path style="fill:#00699E;" d="M444.1,69.7c-0.3-0.8-0.3-1.7-0.7-2.3c-0.6-0.9-1.5-1.3-2.5-1.1c-1,0.2-1.7,0.5-2.6,0
										c-0.3-0.2-0.6-0.5-1-0.7c-0.8-0.3-0.6-0.1-1.2-0.9c-0.5-0.6-1.3-1.5-1.5-2.2c-0.2-0.8,0.2-1.8-1-2.1c-0.2,0-1,0.1-1.3,0.1
										c-0.4,0-0.8,0-1.3-0.1c-1-0.2-1.9,0-3-0.1s-1.6-0.6-2.8-0.1c-0.3,0.1-1.2,0.4-1.4,0.6c-0.4,0.3-0.6,1-0.9,1.4
										c-0.3-0.1-1.2-0.2-1.5-0.2c-0.6,0.2-0.7,0.6-1,1.1c-0.7,0.8-1.7,1.3-2.6,2.1c0.5,1,0,1.3-0.4,2.2c-0.4,1.1-0.4,1.6,0.1,2.5
										c0.5,0.8,0.4,1.9,0.9,2.6c0.3,0.5,0.7,0.6,0.9,1c0.2,0.3,0.1,0.8,0.4,1.1c0.5,0.6,1.8,0.7,2.4,0.9c0.3,0.1,0.5,0.4,1,0.3
										c0.6-0.2,0.7-0.7,1.4-0.7c0.3,0,1,0.4,1.3,0.6c0.1,0.1-0.1,0.4,0.1,0.6s0.5,0.1,0.7,0.3c0.5,0.3,1.8,1,1.8,1.7
										c0,0.1-0.6,0.7-0.7,0.8c-0.4,0.4-0.6,0.5-0.9,1c-0.4,0.6-0.4,0.3-0.5,1c0,0.1,0.1,1,0.2,1.1c0.3,1,0.8,1.3,0.9,2.4
										c0.1,1,0,1.5-0.8,2.2c-0.9,0.9-0.8,1.3-1,2.6c-0.1,0.9-0.9,1.8-1,2.7c0,0.4,0.1,1.5,0.1,2C433.7,89,440.8,80.1,444.1,69.7"
										/>
								</g>
							</g>
						</g>
					</g>
				</g>
			</g>
		</g>
		<g style="display:inline;">
			<g>
				<polygon style="fill:#00699E;" points="3.4,32.8 45.4,32.8 45.4,44.7 18.3,44.7 18.3,56.3 41.8,56.3 41.8,67.9 18.3,67.9 
					18.3,89.9 3.4,89.9 				"/>
				<path style="fill:#00699E;" d="M18.4,89.9h-15V32.6h42.3v12.2H18.4v11.4h23.5v11.7H18.4V89.9z M3.5,89.7h14.6v-22h23.5V56.5
					H18.1v-12h27.1V32.9H3.5V89.7z"/>
			</g>
			<g>
				<path style="fill:#00699E;" d="M102.1,66.3c0,16.6-7.6,24.8-24.8,24.8s-24.8-8.2-24.8-24.8V32.8h14.9v34.4
					c0,7.4,2.7,11.1,9.9,11.1s9.9-3.8,9.9-11.1V32.8h14.9C102.1,32.8,102.1,66.3,102.1,66.3z"/>
				<path style="fill:#00699E;" d="M77.3,91.1c-17.1,0-24.9-7.9-24.9-24.8V32.6h15.1V67c0,7.7,2.9,10.9,9.8,10.9s9.8-3.3,9.8-10.9
					V32.6h15.1v33.5C102.3,83.2,94.3,91.1,77.3,91.1z M52.5,32.9v33.3c0,16.8,7.9,24.7,24.7,24.7s24.7-7.9,24.7-24.7V32.9H87.4v34.3
					c0,7.7-3.1,11.2-10.1,11.2S67.2,75,67.2,67.2V32.9H52.5z"/>
			</g>
			<g>
				<polygon style="fill:#00699E;" points="111,32.8 126.2,32.8 146,67.9 146.1,67.9 146.1,32.8 160.1,32.8 160.1,89.9 144.9,89.9 
					125.1,54.2 124.9,54.2 124.9,89.9 111,89.9 				"/>
				<path style="fill:#00699E;" d="M160.3,89.9h-15.5l0,0L125,54.4v35.5h-14.1V32.6h15.5l0,0l19.8,35v-35h14.2L160.3,89.9
					L160.3,89.9L160.3,89.9z M145,89.7h15V32.9h-13.8V68h-0.4l0,0L126,32.9h-15v56.9h13.8V54.1h0.4l0,0L145,89.7z"/>
			</g>
			<g>
				<rect x="170.3" y="32.8" style="fill:#00699E;" width="14.9" height="57"/>
				<path style="fill:#00699E;" d="M185.3,89.9h-15.1V32.6h15.1V89.9z M170.4,89.7H185V32.9h-14.6V89.7z"/>
			</g>
			<g>
				<path style="fill:#00699E;" d="M195.5,32.8h26.7c9.8-0.1,20.6,2.3,20.6,14.2c0,5.2-3.1,9.2-7.5,11.5c6,1.7,9.8,7,9.8,13.5
					c0,13.6-9.9,17.7-22.2,17.7h-27.4L195.5,32.8L195.5,32.8z M210.2,55.2h11.5c2.6,0,6-1.4,6-5.4c0-4.2-2.9-5.5-6-5.5h-11.5V55.2z
					 M210.2,78h11.9c4.7,0,8-1.7,8-6.4c0-5-3.6-6.8-8-6.8h-11.9V78z"/>
				<path style="fill:#00699E;" d="M222.8,89.9h-27.5V32.6H222c0.2,0,0.6,0,0.9,0c9.1,0,19.9,2.5,19.9,14.4c0,4.8-2.7,9.1-7.4,11.4
					c5.9,1.8,9.6,7,9.6,13.5C245.1,84,237.6,89.9,222.8,89.9z M195.5,89.7h27.3c14.6,0,22.1-5.9,22.1-17.6c0-6.5-3.7-11.7-9.7-13.4
					l-0.2-0.1l0.2-0.1c4.7-2.3,7.5-6.6,7.5-11.4C242.7,35.5,232,33,223,33c-0.2,0-0.6,0-0.9,0h-26.5v56.8L195.5,89.7z M222.2,78.1
					h-12V64.7h12c5.3,0,8.1,2.3,8.1,6.9C230.3,75.9,227.6,78.1,222.2,78.1z M210.4,77.8h11.8c5.3,0,7.9-2.1,7.9-6.3
					c0-4.4-2.7-6.6-7.9-6.6h-11.8V77.8z M221.8,55.4h-11.7V44.2h11.7c3.9,0,6.1,2.1,6.1,5.7C227.9,54.1,224.1,55.4,221.8,55.4z
					 M210.4,55.1h11.4c2.2,0,5.9-1.1,5.9-5.3c0-4.7-3.7-5.4-5.9-5.4h-11.4V55.1z"/>
			</g>
			<g>
				<polygon style="fill:#00699E;" points="252.1,32.8 297.6,32.8 297.6,44.7 267,44.7 267,54.6 295,54.6 295,66.2 267,66.2 
					267,77.1 298.4,77.1 298.4,89.9 252.1,89.9 				"/>
				<path style="fill:#00699E;" d="M298.6,89.9h-46.4V32.6h45.7v12.2h-30.6v9.7h27.9v11.7h-28v10.7h31.4V89.9L298.6,89.9z
					 M252.3,89.7h46.1V77.1H267V66h28V54.7h-28V44.5h30.6V32.9h-45.2L252.3,89.7L252.3,89.7z"/>
			</g>
			<g>
				<path style="fill:#00699E;" d="M306.9,32.8H336c10.1,0,19.9,4.5,19.9,16.1c0,6.1-2.9,12-9,14.2v0.1c6,1.5,7.9,8.2,8.4,13.6
					c0.1,2.5,0.4,10.8,2.5,12.9H343c-1.2-2-1.5-7.5-1.7-9.1C340.9,74.9,340,69,333,69h-11.3v20.8h-14.9L306.9,32.8
					C306.8,32.8,306.9,32.8,306.9,32.8z M321.8,57.6h12.4c4.4,0,6.9-2.5,6.9-6.8c0-4.2-3.3-6.1-7.5-6.1h-11.8V57.6z"/>
				<path style="fill:#00699E;" d="M357.9,89.9h-15l0,0c-1.1-1.6-1.5-5.9-1.6-8.2c0-0.4,0-0.7-0.1-1c-0.4-5.9-1.4-11.5-8.2-11.5
					h-11.2V90h-15.1V32.6h29.2c9.7,0,20,4.3,20,16.2c0,6.8-3.4,12.2-9,14.4c4.8,1.2,7.6,5.8,8.2,13.8c0,0.2,0,0.6,0,1
					c0.1,2.9,0.6,9.9,2.3,11.8L357.9,89.9z M343,89.7h14.4c-1.7-2.1-2.1-8.6-2.2-11.8c0-0.4,0-0.7,0-1c-0.7-7.9-3.4-12.4-8.2-13.5
					h-0.1V63h0.1c5.5-2.1,8.8-7.5,8.8-14.2c0-11.8-10.2-16-19.9-16h-29v56.9h14.6V69H333c7,0,8,6,8.5,11.8c0,0.2,0,0.6,0.1,1
					C341.7,83.9,342.1,88,343,89.7z M334.2,57.7h-12.5V44.5h11.9c4.7,0,7.6,2.5,7.6,6.3C341.2,55.2,338.7,57.7,334.2,57.7z
					 M321.9,57.4h12.4c4.3,0,6.8-2.3,6.8-6.6c0-3.8-2.8-6-7.4-6H322v12.7h-0.1V57.4z"/>
			</g>
		</g>
		<g style="display:inline;">
			<rect x="3.4" y="98.8" style="fill:#B0B1B3;" width="402.5" height="0.7"/>
		</g>
		<g style="display:inline;">
			<path style="fill:#262626;" d="M3.4,108.4h7.9v1.4H5v3.9h5.5v1.4H5v5.6H3.4V108.4z"/>
			<path style="fill:#262626;" d="M23.5,116.3c0,3.1-1.7,4.7-4.7,4.7c-3.1,0-4.9-1.5-4.9-4.7v-7.9h1.6v7.9c0,2.2,1.2,3.4,3.3,3.4
				c2,0,3.1-1.2,3.1-3.4v-7.9h1.6V116.3z"/>
			<path style="fill:#262626;" d="M26.9,108.4h1.7l6.3,10l0,0v-10h1.5v12.3h-1.8l-6.3-9.9l0,0v9.9h-1.5L26.9,108.4L26.9,108.4z"/>
			<path style="fill:#262626;" d="M40,108.4h4.1c3.7,0,5.8,1.9,5.8,5.9c0,4.1-1.8,6.4-5.8,6.4H40V108.4z M41.6,119.4h2.7
				c1.1,0,4-0.3,4-4.8c0-2.9-1.1-4.7-4-4.7h-2.7V119.4z"/>
			<path style="fill:#262626;" d="M56,108.4h1.8l4.7,12.3h-1.8l-1.3-3.7h-5.1l-1.4,3.7h-1.7L56,108.4z M54.8,115.7h4.1l-2-5.7l0,0
				L54.8,115.7z"/>
			<path style="fill:#262626;" d="M72.9,112.1c-0.4-1.7-1.7-2.6-3.4-2.6c-2.9,0-4.1,2.4-4.1,5c0,2.8,1.2,5.2,4.1,5.2
				c2.1,0,3.3-1.5,3.5-3.5h1.6c-0.3,3.1-2.2,4.9-5.2,4.9c-3.7,0-5.6-2.8-5.6-6.4s2-6.5,5.7-6.5c2.5,0,4.6,1.4,5,4L72.9,112.1
				L72.9,112.1z"/>
			<path style="fill:#262626;" d="M77.6,108.4h1.6v12.3h-1.6V108.4z"/>
			<path style="fill:#262626;" d="M87.8,108.1c3.8,0,5.8,3.1,5.8,6.4s-1.9,6.4-5.8,6.4c-3.8,0-5.8-3.1-5.8-6.4S84,108.1,87.8,108.1z
				 M87.8,119.7c2.9,0,4.2-2.6,4.2-5.1s-1.2-5.1-4.2-5.1c-2.9,0-4.2,2.6-4.2,5.1C83.6,117.1,84.9,119.7,87.8,119.7z M88.3,104.9h1.8
				l-2.2,2.5h-1.1L88.3,104.9z"/>
			<path style="fill:#262626;" d="M96.4,108.4h1.7l6.3,10l0,0v-10h1.5v12.3h-1.8l-6.3-9.9l0,0v9.9h-1.5v-12.3H96.4z"/>
			<path style="fill:#262626;" d="M124.6,116.3c0,3.1-1.7,4.7-4.7,4.7c-3.1,0-4.9-1.5-4.9-4.7v-7.9h1.6v7.9c0,2.2,1.2,3.4,3.3,3.4
				c2,0,3.1-1.2,3.1-3.4v-7.9h1.6V116.3z"/>
			<path style="fill:#262626;" d="M127.9,108.4h1.7l6.3,10l0,0v-10h1.5v12.3h-1.8l-6.3-9.9l0,0v9.9h-1.5L127.9,108.4L127.9,108.4z"
				/>
			<path style="fill:#262626;" d="M141.1,108.4h1.6v12.3h-1.6V108.4z"/>
			<path style="fill:#262626;" d="M150.9,120.7h-1.8l-4.3-12.3h1.7l3.4,10.7l0,0l3.5-10.7h1.7L150.9,120.7z"/>
			<path style="fill:#262626;" d="M157.4,108.4h8.3v1.4H159v3.9h6.3v1.4H159v4.3h6.8v1.4h-8.4L157.4,108.4L157.4,108.4z"/>
			<path style="fill:#262626;" d="M168.5,108.4h5.7c2.3,0,3.7,1.2,3.7,3.2c0,1.5-0.6,2.7-2.1,3.1l0,0c1.4,0.3,1.7,1.3,1.8,2.5
				s0,2.6,0.7,3.4h-1.8c-0.5-0.5-0.2-1.8-0.4-3s-0.5-2.2-2-2.2h-3.9v5.3h-1.6L168.5,108.4L168.5,108.4z M173.5,114.1
				c1.5,0,2.8-0.4,2.8-2.2c0-1.2-0.6-2.1-2.1-2.1h-4v4.3L173.5,114.1z"/>
			<path style="fill:#262626;" d="M187.9,112c-0.2-1.8-1.3-2.5-3-2.5c-1.4,0-2.7,0.5-2.7,2.1c0,3,7.7,0.9,7.7,5.7
				c0,2.6-2.5,3.7-4.7,3.7c-2.7,0-5-1.4-5-4.3h1.5c0,2.1,1.7,3,3.5,3c1.5,0,3.1-0.5,3.1-2.2c0-3.4-7.7-1.2-7.7-5.7
				c0-2.5,2.2-3.6,4.4-3.6c2.5,0,4.4,1.2,4.4,3.9L187.9,112L187.9,112z"/>
			<path style="fill:#262626;" d="M192.8,108.4h1.6v12.3h-1.6V108.4z"/>
			<path style="fill:#262626;" d="M200.6,109.8h-4v-1.4h9.6v1.4h-4v10.9h-1.6V109.8z"/>
			<path style="fill:#262626;" d="M211.7,108.4h1.8l4.7,12.3h-1.8l-1.3-3.7H210l-1.4,3.7H207L211.7,108.4z M210.5,115.7h4.1l-2-5.7
				l0,0L210.5,115.7z"/>
			<path style="fill:#262626;" d="M220.2,108.4h5.7c2.3,0,3.7,1.2,3.7,3.2c0,1.5-0.6,2.7-2.1,3.1l0,0c1.4,0.3,1.7,1.3,1.8,2.5
				s0,2.6,0.7,3.4h-1.8c-0.5-0.5-0.2-1.8-0.4-3s-0.5-2.2-2-2.2h-3.9v5.3h-1.6L220.2,108.4L220.2,108.4z M225.2,114.1
				c1.5,0,2.8-0.4,2.8-2.2c0-1.2-0.6-2.1-2.1-2.1h-4v4.3L225.2,114.1z"/>
			<path style="fill:#262626;" d="M232.7,108.4h1.6v12.3h-1.6V108.4z"/>
			<path style="fill:#262626;" d="M241.1,108.4h1.8l4.7,12.3h-1.8l-1.3-3.7h-5.1l-1.4,3.7h-1.7L241.1,108.4z M239.9,115.7h4.1
				l-2-5.7l0,0L239.9,115.7z"/>
			<path style="fill:#262626;" d="M255.2,108.4h1.6v12.3h-1.6L255.2,108.4L255.2,108.4z"/>
			<path style="fill:#262626;" d="M260.4,108.4h4.4c1,0,2.5,0,3.2,0.4c0.8,0.5,1.4,1.3,1.4,2.6c0,1.3-0.7,2.3-1.8,2.8l0,0
				c1.5,0.3,2.3,1.4,2.3,3c0,1.8-1.3,3.5-3.7,3.5h-5.8V108.4z M262,113.7h3.2c1.8,0,2.6-0.7,2.6-2c0-1.7-1.2-1.9-2.6-1.9H262V113.7z
				 M262,119.4h4c1.4,0,2.3-0.8,2.3-2.2c0-1.6-1.3-2-2.6-2H262V119.4z"/>
			<path style="fill:#262626;" d="M272.8,108.4h8.3v1.4h-6.7v3.9h6.3v1.4h-6.3v4.3h6.8v1.4h-8.4L272.8,108.4L272.8,108.4z"/>
			<path style="fill:#262626;" d="M283.9,108.4h5.7c2.3,0,3.7,1.2,3.7,3.2c0,1.5-0.6,2.7-2.1,3.1l0,0c1.4,0.3,1.7,1.3,1.8,2.5
				c0.1,1.2,0,2.6,0.7,3.4h-1.8c-0.5-0.5-0.2-1.8-0.4-3c-0.2-1.2-0.5-2.2-2-2.2h-3.9v5.3H284v-12.3H283.9z M288.9,114.1
				c1.5,0,2.8-0.4,2.8-2.2c0-1.2-0.6-2.1-2.1-2.1h-4v4.3L288.9,114.1z"/>
			<path style="fill:#262626;" d="M301.4,108.1c3.8,0,5.8,3.1,5.8,6.4s-1.9,6.4-5.8,6.4c-3.8,0-5.8-3.1-5.8-6.4
				S297.6,108.1,301.4,108.1z M301.4,119.7c2.9,0,4.2-2.6,4.2-5.1s-1.2-5.1-4.2-5.1c-2.9,0-4.2,2.6-4.2,5.1
				C297.2,117.1,298.5,119.7,301.4,119.7z"/>
			<path style="fill:#262626;" d="M313.3,108.4h1.8l4.7,12.3H318l-1.3-3.7h-5.1l-1.4,3.7h-1.7L313.3,108.4z M312.1,115.7h4.1l-2-5.7
				l0,0L312.1,115.7z"/>
			<path style="fill:#262626;" d="M321.8,108.4h2.2l3.8,10.3l3.8-10.3h2.2v12.3h-1.5v-10.2l0,0l-3.8,10.2h-1.4l-3.8-10.2l0,0v10.2
				h-1.5L321.8,108.4L321.8,108.4z"/>
			<path style="fill:#262626;" d="M337.3,108.4h8.3v1.4h-6.7v3.9h6.3v1.4h-6.3v4.3h6.8v1.4h-8.4L337.3,108.4L337.3,108.4z"/>
			<path style="fill:#262626;" d="M348.5,108.4h5.7c2.3,0,3.7,1.2,3.7,3.2c0,1.5-0.6,2.7-2.1,3.1l0,0c1.4,0.3,1.7,1.3,1.8,2.5
				c0.1,1.2,0,2.6,0.7,3.4h-1.8c-0.5-0.5-0.2-1.8-0.4-3c-0.2-1.2-0.5-2.2-2-2.2h-3.9v5.3h-1.6v-12.3H348.5z M353.4,114.1
				c1.5,0,2.8-0.4,2.8-2.2c0-1.2-0.6-2.1-2.1-2.1h-4v4.3L353.4,114.1z"/>
			<path style="fill:#262626;" d="M360.9,108.4h1.6v12.3h-1.6V108.4z"/>
			<path style="fill:#262626;" d="M374.5,112.1c-0.4-1.7-1.7-2.6-3.4-2.6c-2.9,0-4.1,2.4-4.1,5c0,2.8,1.2,5.2,4.1,5.2
				c2.1,0,3.3-1.5,3.5-3.5h1.6c-0.3,3.1-2.2,4.9-5.2,4.9c-3.7,0-5.6-2.8-5.6-6.4s2-6.5,5.7-6.5c2.5,0,4.6,1.4,5,4L374.5,112.1
				L374.5,112.1z"/>
			<path style="fill:#262626;" d="M382.4,108.4h1.8l4.7,12.3h-1.8l-1.3-3.7h-5.1l-1.4,3.7h-1.7L382.4,108.4z M381.2,115.7h4.1
				l-2-5.7l0,0L381.2,115.7z"/>
			<path style="fill:#262626;" d="M390.9,108.4h1.7l6.3,10l0,0v-10h1.5v12.3h-1.8l-6.3-9.9l0,0v9.9h-1.5L390.9,108.4L390.9,108.4z"
				/>
			<path style="fill:#262626;" d="M407.2,108.4h1.8l4.7,12.3h-1.8l-1.3-3.7h-5.1l-1.4,3.7h-1.7L407.2,108.4z M406,115.7h4.1l-2-5.7
				l0,0L406,115.7z"/>
		</g>
		<text transform="matrix(1 0 0 1 450 499.9999)" style="display:inline; font-family:'MyriadPro-Regular'; font-size:12;">445,1</text>
	</g>
	<g id="Capa_2">
		<g>
			<path style="fill:#4C4C4E;" d="M4.8,123.9V110h7.4l-0.2,1.5H6.7v4.8h4.6v1.5H6.7v6.1H4.8z"/>
			<path style="fill:#4C4C4E;" d="M24.2,119.4c0,0.9-0.2,1.7-0.6,2.5c-0.4,0.7-0.9,1.3-1.7,1.7c-0.7,0.4-1.6,0.6-2.6,0.6
				c-1.6,0-2.8-0.4-3.6-1.3c-0.8-0.9-1.3-2-1.3-3.4V110h1.9v9.3c0,1.1,0.2,1.9,0.7,2.4s1.2,0.8,2.2,0.8s1.7-0.3,2.2-0.8
				s0.7-1.3,0.7-2.4V110H24L24.2,119.4L24.2,119.4z"/>
			<path style="fill:#4C4C4E;" d="M37.6,123.9H35L29.4,112c0.1,0.9,0.1,1.8,0.2,2.6c0,0.8,0.1,1.7,0.1,2.9v6.4h-1.8V110h2.5
				l5.7,11.9c0-0.4-0.1-1-0.2-1.8c-0.1-0.9-0.1-1.7-0.1-2.4v-7.6h1.8L37.6,123.9L37.6,123.9z"/>
			<path style="fill:#4C4C4E;" d="M49.3,111.4c1.3,1,1.9,2.8,1.9,5.4s-0.6,4.4-1.9,5.5c-1.3,1.1-2.8,1.6-4.6,1.6h-3.3V110h2.9
				C46.4,109.9,48.1,110.4,49.3,111.4z M43.3,111.5v10.9h1.6c1.3,0,2.3-0.4,3.2-1.2c0.8-0.8,1.2-2.2,1.2-4.3c0-1.5-0.2-2.6-0.6-3.4
				c-0.4-0.8-1-1.3-1.6-1.6c-0.7-0.3-1.4-0.4-2.3-0.4H43.3L43.3,111.5L43.3,111.5z"/>
			<path style="fill:#4C4C4E;" d="M61.5,123.9l-1.1-3.5h-5.3l-1.1,3.5h-1.9l4.5-13.9H59l4.5,13.9H61.5z M55.7,118.8H60l-2.2-7.3
				L55.7,118.8z"/>
			<path style="fill:#4C4C4E;" d="M72.4,110c0.6,0.2,1.2,0.6,1.8,1.1l-1.1,1.2c-0.9-0.7-1.7-1-2.7-1c-1.2,0-2.1,0.4-2.8,1.3
				s-1.1,2.3-1.1,4.3c0,1.9,0.4,3.3,1.1,4.2c0.7,0.9,1.6,1.4,2.8,1.4c0.6,0,1.1-0.1,1.6-0.3c0.4-0.2,0.9-0.5,1.4-0.8l1,1.2
				c-0.4,0.4-1,0.8-1.7,1.1c-0.7,0.3-1.4,0.4-2.3,0.4c-1.1,0-2.1-0.3-3-0.8c-0.9-0.6-1.6-1.4-2.1-2.5s-0.7-2.4-0.7-3.9
				s0.3-2.8,0.8-3.9s1.2-1.9,2.1-2.5s1.9-0.8,2.9-0.8C71.2,109.7,71.9,109.8,72.4,110z"/>
			<path style="fill:#4C4C4E;" d="M78.6,109.9v13.9h-1.9v-13.9H78.6z"/>
			<path style="fill:#4C4C4E;" d="M90.6,110.5c0.9,0.6,1.6,1.4,2.1,2.5s0.7,2.4,0.7,3.9s-0.2,2.8-0.7,3.9s-1.2,1.9-2.1,2.5
				s-1.9,0.9-3.1,0.9s-2.2-0.3-3.1-0.8c-0.9-0.6-1.6-1.4-2.1-2.5s-0.7-2.4-0.7-3.9s0.2-2.8,0.7-3.9s1.2-1.9,2.1-2.5s1.9-0.9,3.1-0.9
				S89.7,110,90.6,110.5z M84.7,112.7c-0.7,0.9-1,2.3-1,4.3c0,1.9,0.3,3.3,1,4.3c0.7,0.9,1.6,1.4,2.8,1.4c2.6,0,3.8-1.9,3.8-5.6
				c0-3.8-1.3-5.6-3.8-5.6C86.3,111.3,85.3,111.7,84.7,112.7z M89.1,105.4l0.8,1.6l-4.4,1.6l-0.5-1L89.1,105.4z"/>
			<path style="fill:#4C4C4E;" d="M106.1,123.9h-2.6L97.9,112c0.1,0.9,0.1,1.8,0.2,2.6c0,0.8,0.1,1.7,0.1,2.9v6.4h-1.8V110h2.5
				l5.7,11.9c0-0.4-0.1-1-0.2-1.8c-0.1-0.9-0.1-1.7-0.1-2.4v-7.6h1.8V123.9L106.1,123.9z"/>
			<path style="fill:#4C4C4E;" d="M124.7,119.4c0,0.9-0.2,1.7-0.6,2.5c-0.4,0.7-0.9,1.3-1.7,1.7c-0.7,0.4-1.6,0.6-2.6,0.6
				c-1.6,0-2.8-0.4-3.6-1.3c-0.8-0.9-1.3-2-1.3-3.4V110h1.9v9.3c0,1.1,0.2,1.9,0.7,2.4s1.2,0.8,2.2,0.8s1.7-0.3,2.2-0.8
				s0.7-1.3,0.7-2.4V110h1.9L124.7,119.4L124.7,119.4z"/>
			<path style="fill:#4C4C4E;" d="M138.1,123.9h-2.6l-5.7-11.8c0.1,0.9,0.1,1.8,0.2,2.6c0,0.8,0.1,1.7,0.1,2.9v6.4h-1.8v-13.9h2.5
				l5.7,11.9c0-0.4-0.1-1-0.2-1.8c-0.1-0.9-0.1-1.7-0.1-2.4v-7.6h1.8L138.1,123.9L138.1,123.9z"/>
			<path style="fill:#4C4C4E;" d="M143.8,109.9v13.9h-1.9v-13.9H143.8z"/>
			<path style="fill:#4C4C4E;" d="M157,109.9l-4.5,13.9h-2.1l-4.5-13.9h2.1l3.5,11.9l3.5-11.9H157z"/>
			<path style="fill:#4C4C4E;" d="M166.7,109.9l-0.2,1.5h-5.4v4.6h4.7v1.5h-4.7v4.8h5.8v1.5h-7.7v-13.9H166.7L166.7,109.9z"/>
			<path style="fill:#4C4C4E;" d="M173.6,118h-2.2v5.9h-1.9V110h3.7c1.7,0,3.1,0.3,4,1s1.4,1.6,1.4,3c0,1-0.2,1.8-0.7,2.4
				s-1.2,1.1-2.3,1.4l3.8,6.3H177L173.6,118z M173.4,116.5c1,0,1.8-0.2,2.3-0.6s0.8-1.1,0.8-2s-0.3-1.5-0.8-1.9s-1.4-0.6-2.5-0.6
				h-1.7v5.1H173.4z"/>
			<path style="fill:#4C4C4E;" d="M187.9,110.1c0.7,0.3,1.3,0.7,1.9,1.2l-1.1,1.2c-0.5-0.4-1-0.7-1.5-0.9c-0.5-0.2-1-0.3-1.6-0.3
				c-0.7,0-1.3,0.2-1.8,0.5s-0.7,0.8-0.7,1.5c0,0.4,0.1,0.7,0.2,1c0.2,0.3,0.5,0.5,0.9,0.8c0.4,0.2,1.1,0.5,1.9,0.7
				c0.9,0.3,1.6,0.6,2.2,0.9c0.6,0.3,1,0.7,1.4,1.3c0.4,0.5,0.5,1.2,0.5,2.1c0,0.8-0.2,1.5-0.6,2.1c-0.4,0.6-1,1.1-1.7,1.5
				s-1.6,0.5-2.7,0.5c-1.9,0-3.5-0.6-4.7-1.8l1.1-1.2c0.6,0.5,1.1,0.8,1.7,1c0.6,0.2,1.2,0.4,1.9,0.4c0.9,0,1.6-0.2,2.1-0.6
				c0.6-0.4,0.9-1,0.9-1.9c0-0.5-0.1-0.8-0.3-1.1c-0.2-0.3-0.5-0.6-0.9-0.8c-0.4-0.2-1-0.5-1.9-0.7c-1.4-0.4-2.5-1-3.1-1.6
				c-0.7-0.6-1-1.4-1-2.5c0-0.7,0.2-1.3,0.6-1.9c0.4-0.6,0.9-1,1.6-1.3c0.7-0.3,1.4-0.5,2.3-0.5
				C186.4,109.7,187.2,109.8,187.9,110.1z"/>
			<path style="fill:#4C4C4E;" d="M194.8,109.9v13.9h-1.9v-13.9H194.8z"/>
			<path style="fill:#4C4C4E;" d="M207.1,109.9l-0.2,1.6H203v12.3h-1.9v-12.3h-4v-1.6H207.1z"/>
			<path style="fill:#4C4C4E;" d="M215.7,123.9l-1.1-3.5h-5.3l-1.1,3.5h-1.9l4.5-13.9h2.4l4.5,13.9
				C217.7,123.9,215.7,123.9,215.7,123.9z M209.8,118.8h4.4l-2.2-7.3L209.8,118.8z"/>
			<path style="fill:#4C4C4E;" d="M224,118h-2.2v5.9h-1.9V110h3.7c1.7,0,3.1,0.3,4,1s1.4,1.6,1.4,3c0,1-0.2,1.8-0.7,2.4
				s-1.3,1.1-2.3,1.4l3.8,6.3h-2.3L224,118z M223.8,116.5c1,0,1.8-0.2,2.3-0.6s0.8-1.1,0.8-2s-0.3-1.5-0.8-1.9s-1.4-0.6-2.5-0.6
				h-1.7v5.1H223.8z"/>
			<path style="fill:#4C4C4E;" d="M234,109.9v13.9h-2v-13.9H234z"/>
			<path style="fill:#4C4C4E;" d="M245.5,123.9l-1.1-3.5h-5.3l-1.1,3.5h-1.9l4.5-13.9h2.4l4.4,13.9
				C247.5,123.9,245.5,123.9,245.5,123.9z M239.6,118.8h4.4l-2.2-7.3L239.6,118.8z"/>
			<path style="fill:#4C4C4E;" d="M256.6,109.9v13.9h-1.9v-13.9C254.6,109.9,256.6,109.9,256.6,109.9z"/>
			<path style="fill:#4C4C4E;" d="M268.8,117.5c0.6,0.5,0.9,1.3,0.9,2.4c0,2.6-1.8,4-5.5,4h-3.8V110h3.3c1.8,0,3.1,0.3,4.1,0.9
				c0.9,0.6,1.4,1.5,1.4,2.7c0,0.8-0.3,1.5-0.8,2s-1.1,0.9-1.9,1C267.4,116.7,268.2,117,268.8,117.5z M262.2,111.5v4.4h2.1
				c0.8,0,1.5-0.2,2-0.6s0.8-0.9,0.8-1.7c0-0.8-0.3-1.4-0.8-1.7c-0.5-0.3-1.4-0.5-2.5-0.5L262.2,111.5z M266.7,121.8
				c0.6-0.3,0.9-1,0.9-1.9s-0.3-1.6-0.9-2s-1.3-0.6-2.3-0.6h-2.3v5h1.9C265.3,122.4,266.1,122.2,266.7,121.8z"/>
			<path style="fill:#4C4C4E;" d="M280.1,109.9l-0.2,1.5h-5.4v4.6h4.7v1.5h-4.7v4.8h5.8v1.5h-7.7v-13.9H280.1L280.1,109.9
				L280.1,109.9z"/>
			<path style="fill:#4C4C4E;" d="M287,118h-2.2v5.9h-1.9V110h3.7c1.7,0,3.1,0.3,4,1s1.4,1.6,1.4,3c0,1-0.3,1.8-0.8,2.4
				s-1.3,1.1-2.3,1.4l3.8,6.3h-2.3L287,118z M286.8,116.5c1,0,1.8-0.2,2.3-0.6s0.8-1.1,0.8-2s-0.3-1.5-0.8-1.9s-1.4-0.6-2.5-0.6
				h-1.7v5.1H286.8z"/>
			<path style="fill:#4C4C4E;" d="M303.1,110.5c0.9,0.6,1.6,1.4,2.1,2.5s0.7,2.4,0.7,3.9s-0.2,2.8-0.7,3.9s-1.2,1.9-2.1,2.5
				s-1.9,0.9-3.1,0.9s-2.2-0.3-3.1-0.8c-0.9-0.6-1.6-1.4-2.1-2.5s-0.7-2.4-0.7-3.9s0.2-2.8,0.7-3.9s1.2-1.9,2.1-2.5s1.9-0.9,3.1-0.9
				C301.1,109.7,302.2,110,303.1,110.5z M297.1,112.7c-0.7,0.9-1,2.3-1,4.3c0,1.9,0.3,3.3,1,4.3c0.7,0.9,1.6,1.4,2.8,1.4
				c2.6,0,3.9-1.9,3.9-5.6c0-3.8-1.3-5.6-3.9-5.6C298.8,111.3,297.8,111.7,297.1,112.7z"/>
			<path style="fill:#4C4C4E;" d="M316.2,123.9l-1-3.5h-5.3l-1.1,3.5h-1.9l4.5-13.9h2.4l4.5,13.9
				C318.2,123.9,316.2,123.9,316.2,123.9z M310.3,118.8h4.4l-2.2-7.3L310.3,118.8z"/>
			<path style="fill:#4C4C4E;" d="M333.2,123.9h-1.9l-0.5-6.3c-0.2-2.5-0.3-4.4-0.3-5.7l-3,10.4h-1.8l-3.2-10.4
				c0,1.7-0.1,3.6-0.3,5.9l-0.5,6.2H320l1.2-13.9h2.6l2.9,10.1l2.8-10.1h2.6L333.2,123.9z"/>
			<path style="fill:#4C4C4E;" d="M343.9,109.9l-0.2,1.5h-5.4v4.6h4.7v1.5h-4.7v4.8h5.8v1.5h-7.7v-13.9H343.9L343.9,109.9z"/>
			<path style="fill:#4C4C4E;" d="M350.8,118h-2.2v5.9h-1.9V110h3.7c1.7,0,3.1,0.3,4,1s1.3,1.6,1.3,3c0,1-0.2,1.8-0.7,2.4
				s-1.3,1.1-2.3,1.4l3.8,6.3h-2.3L350.8,118z M350.6,116.5c1,0,1.8-0.2,2.3-0.6s0.8-1.1,0.8-2s-0.3-1.5-0.8-1.9s-1.4-0.6-2.5-0.6
				h-1.7v5.1H350.6z"/>
			<path style="fill:#4C4C4E;" d="M360.8,109.9v13.9h-1.9v-13.9C358.8,109.9,360.8,109.9,360.8,109.9z"/>
			<path style="fill:#4C4C4E;" d="M371.6,110c0.6,0.2,1.2,0.6,1.8,1.1l-1.1,1.2c-0.8-0.7-1.8-1-2.7-1c-1.2,0-2.1,0.4-2.8,1.3
				c-0.7,0.9-1.1,2.3-1.1,4.3c0,1.9,0.4,3.3,1.1,4.2c0.7,0.9,1.6,1.4,2.8,1.4c0.6,0,1.1-0.1,1.6-0.3c0.4-0.2,0.9-0.5,1.4-0.8l1,1.2
				c-0.4,0.4-1,0.8-1.7,1.1c-0.7,0.3-1.4,0.4-2.3,0.4c-1.1,0-2.1-0.3-3-0.8c-0.9-0.6-1.6-1.4-2.1-2.5s-0.7-2.4-0.7-3.9
				s0.3-2.8,0.8-3.9s1.2-1.9,2.1-2.5s1.9-0.8,2.9-0.8C370.4,109.7,371.1,109.8,371.6,110z"/>
			<path style="fill:#4C4C4E;" d="M384.1,123.9l-1.1-3.5h-5.3l-1.1,3.5h-1.9l4.5-13.9h2.4l4.5,13.9H384.1z M378.2,118.8h4.4
				l-2.2-7.3L378.2,118.8z"/>
			<path style="fill:#4C4C4E;" d="M398.1,123.9h-2.6l-5.7-11.8c0.1,0.9,0.1,1.8,0.2,2.6c0,0.8,0.1,1.7,0.1,2.9v6.4h-1.8v-13.9h2.5
				l5.7,11.9c0-0.4-0.1-1-0.2-1.8c-0.1-0.9-0.1-1.7-0.1-2.4v-7.6h1.8L398.1,123.9L398.1,123.9z"/>
			<path style="fill:#4C4C4E;" d="M409.6,123.9l-1.1-3.5h-5.3l-1.1,3.5h-1.9l4.5-13.9h2.4l4.5,13.9H409.6z M403.7,118.8h4.4
				l-2.2-7.3L403.7,118.8z"/>
		</g>
		<path style="fill:#939597;" d="M391.8,10.6c-24.4,0-44.2,19.8-44.2,44.2c0,19.6,12.8,36.2,30.5,42H4.2V99h386.3c0.4,0,0.8,0,1.2,0
			c24.4,0,44.2-19.8,44.2-44.2S416.2,10.6,391.8,10.6z M420.7,32.9c0.5,2.3,0.9,4.8,1,7.3c-3-2.8-6.4-5.3-10.1-7.5
			c0.8-7.6,0.2-13.5-1.9-16.8C415,19,418.9,24.9,420.7,32.9z M380.2,96.2c3.6-1.1,7.8-5.2,12-11.2c4,0.9,8.1,1.3,11.9,1.3l0,0h0.1
			c-6.4,6.4-13.8,10.2-21,10.2C382.3,96.5,381.3,96.4,380.2,96.2z M391.2,55.3l-4.3,11.6c-3.9-1.6-7.5-3.3-10.9-5
			c1-3.7,2.2-7.5,3.6-11.3L391.2,55.3z M379.8,49.7c1.5-3.9,3.1-7.7,4.7-11.1c3.7,1.1,7.5,2.4,11.3,4l-4.4,11.9L379.8,49.7z
			 M392.1,55.6l11.6,4.7c-1.4,3.8-3,7.5-4.6,10.9c-3.7-1.1-7.4-2.4-11.2-3.9L392.1,55.6z M392.4,54.7l4.4-11.9
			c3.8,1.6,7.4,3.2,10.8,5c-1,3.7-2.2,7.6-3.6,11.5v0.1L392.4,54.7z M397.2,41.9l4.8-13c0.1,0,0.2,0.1,0.3,0.1
			c2.9,1.2,5.6,2.5,8.2,4c-0.5,4.2-1.3,8.8-2.6,13.8C404.6,45.1,401,43.5,397.2,41.9z M396.3,41.6c-3.8-1.5-7.6-2.8-11.3-3.9
			c2.2-4.4,4.5-8.5,6.8-11.9c3.1,0.7,6.2,1.6,9.3,2.8L396.3,41.6z M384.1,37.3c-4.7-1.4-9.1-2.4-13.2-3c2.2-3.7,4.7-7.1,7.4-10
			c0.4,0,0.8,0,1.1,0c3.7,0,7.5,0.4,11.4,1.2C388.5,28.9,386.2,32.9,384.1,37.3z M383.6,38.2c-1.7,3.5-3.2,7.2-4.7,11.1l-12.8-5.2
			c1.2-3.1,2.6-6.1,4.2-8.9C374.4,35.8,378.9,36.9,383.6,38.2z M378.6,50.2c-1.4,3.8-2.6,7.6-3.6,11.2c-4.5-2.4-8.5-4.8-11.9-7.3
			c0.6-2.9,1.5-5.9,2.5-8.8c0-0.1,0.1-0.2,0.1-0.3L378.6,50.2z M374.8,62.4c-1.3,4.9-2.2,9.5-2.7,13.6c-3.9-2.3-7.3-5-10.3-7.9
			c-0.1-4.1,0.2-8.5,1.1-12.9C366.3,57.6,370.3,60.1,374.8,62.4z M375.7,62.8c3.4,1.7,7,3.4,10.8,5l0,0l-4.8,13
			c-0.1-0.1-0.3-0.1-0.4-0.2c-2.9-1.2-5.6-2.5-8.2-4C373.5,72.4,374.4,67.8,375.7,62.8z M387.5,68.2c3.8,1.5,7.5,2.8,11.1,3.9
			c-2.2,4.4-4.5,8.5-6.8,11.8c-3.1-0.7-6.1-1.6-9.2-2.8L387.5,68.2z M404.2,85.3L404.2,85.3c-3.7,0-7.5-0.4-11.3-1.2
			c2.3-3.4,4.6-7.4,6.7-11.8c4.7,1.4,9.1,2.4,13.2,3c-2.2,3.7-4.7,7.1-7.4,10C404.9,85.3,404.6,85.3,404.2,85.3z M400,71.5
			c1.6-3.4,3.2-7,4.6-10.8l12.8,5.2c-1.2,3-2.5,5.9-4.1,8.6C409.2,73.8,404.7,72.8,400,71.5z M404.9,59.8L404.9,59.8
			c1.4-4,2.6-7.8,3.6-11.5c4.5,2.4,8.5,4.8,11.9,7.3c-0.6,2.9-1.5,5.9-2.5,8.8c-0.1,0.2-0.1,0.3-0.2,0.5L404.9,59.8z M408.8,47.3
			c1.3-4.9,2.2-9.5,2.7-13.6c3.8,2.3,7.3,5,10.3,7.9c0.1,4.2-0.2,8.5-1.1,13C417.3,52.1,413.3,49.6,408.8,47.3z M407.3,14.7
			c3.1,1.9,4.2,8.4,3.3,17.3c-2.5-1.4-5.2-2.7-8-3.9c-0.1,0-0.2-0.1-0.3-0.1L407.3,14.7L407.3,14.7z M405.7,14.1
			c0.2,0.1,0.4,0.2,0.6,0.2l-4.9,13.3c-3-1.1-6-2.1-9-2.8c4.7-6.7,9.3-10.8,12.9-10.8C405.4,14.1,405.6,14.1,405.7,14.1z
			 M403.4,13.5c-3.6,1.1-7.8,5.2-12,11.2c-4-0.9-8-1.3-11.9-1.3h-0.1c6.4-6.4,13.8-10.2,21-10.2C401.3,13.2,402.3,13.3,403.4,13.5z
			 M391.8,11.8c2.3,0,4.5,0.2,6.6,0.6c-7.1,0.6-14.3,4.6-20.5,11.1c-9.3,0.3-17,3-22,7.7C363.6,19.5,376.8,11.8,391.8,11.8z
			 M377,24.4c-2.6,2.9-5,6.2-7.2,9.8c-2.5-0.3-4.9-0.5-7.1-0.5c-4.1,0-7.2,0.6-9.3,1.8C357.7,29,366.1,24.9,377,24.4z M352.2,38
			c1.4-2.1,5.1-3.3,10.5-3.3c2,0,4.2,0.2,6.6,0.5c-1.5,2.7-2.9,5.6-4,8.6L352,38.4C352.1,38.3,352.1,38.1,352.2,38z M351.7,39.4
			C351.7,39.4,351.7,39.3,351.7,39.4l13.2,5.3c0,0.1-0.1,0.2-0.1,0.3c-1,2.8-1.9,5.7-2.5,8.5C355.1,48.1,351,43,351.7,39.4z
			 M350.9,41.9c1,3.7,5,8.2,11.2,12.7c-0.9,4.3-1.3,8.6-1.2,12.6C353.1,59.3,349.2,50.1,350.9,41.9z M348.7,54.8
			c0-2.8,0.3-5.6,0.8-8.2c0.3,7.4,4.5,15.2,11.3,22c0.4,9.5,3.3,17.7,8.4,22.9C357,83.9,348.7,70.4,348.7,54.8z M361.9,69.5
			c2.9,2.7,6.3,5.3,10.1,7.6c-0.8,7.6-0.2,13.5,1.9,16.8C366.7,89.6,362.5,80.5,361.9,69.5z M376.2,95c-3.1-1.9-4.1-8.4-3.3-17.3
			c2.5,1.4,5.2,2.7,8,3.9c0.2,0.1,0.3,0.1,0.5,0.2L376.5,95C376.4,95,376.3,95,376.2,95z M377.4,95.4l4.9-13.3
			c2.9,1.1,5.9,2,8.9,2.7c-4.7,6.7-9.3,10.8-12.9,10.8l0,0c-0.1,0-0.3,0-0.4,0C377.7,95.5,377.6,95.4,377.4,95.4z M391.8,97.9
			c-2.3,0-4.5-0.2-6.6-0.6c7.1-0.6,14.3-4.6,20.5-11.1c9.3-0.3,17-3,22-7.7C420,90.2,406.8,97.9,391.8,97.9z M406.6,85.3
			c2.6-2.9,5-6.2,7.2-9.8c2.5,0.3,4.9,0.5,7.1,0.5l0,0c4.1,0,7.2-0.6,9.3-1.8C425.9,80.7,417.4,84.7,406.6,85.3z M431.4,71.7
			c-1.4,2.1-5,3.3-10.5,3.3l0,0c-2,0-4.2-0.2-6.6-0.5c1.5-2.6,2.8-5.4,3.9-8.4l13.2,5.3C431.5,71.6,431.4,71.7,431.4,71.7z
			 M431.9,70.3c0,0.1-0.1,0.2-0.1,0.3l-13.2-5.3c0.1-0.2,0.2-0.4,0.2-0.6c1-2.8,1.9-5.7,2.5-8.5C428.5,61.6,432.6,66.7,431.9,70.3z
			 M432.7,67.8c-1-3.7-5-8.2-11.2-12.7c0.9-4.3,1.3-8.5,1.2-12.6c1.8,1.8,3.4,3.7,4.8,5.7C432.2,54.9,434,61.7,432.7,67.8z
			 M428.3,47.6c-1.6-2.3-3.5-4.5-5.6-6.5c-0.1-2.9-0.5-5.8-1.1-8.5c-1.4-6-3.9-10.9-7.3-14.4c12.3,7.6,20.5,21.2,20.5,36.6
			c0,2.8-0.3,5.4-0.8,8.1C433.8,58,431.9,52.7,428.3,47.6z"/>
		<g>
			<path style="fill:#006696;" d="M388.9,71.1c0.1-1.9-1.7-1.9-1.7-1.9c1-0.2-2.6-2.1-2.6-2.1c0.8-2.2-2.6-4.3-2.6-4.3
				c-0.9-3.5-2.6-3.6-2.6-3.6c-2.7,0.1-3.1-2-3.1-2c-0.9,0.6-2,0.1-2,0.1c1.2-0.8-4.5-1.3-4.5-1.3c0.1-4.5-1.8-4.1-1.8-4.1
				c0.2-2.2-1.7-3.2-1.7-3.2s-2.4,1.2-2.2-1.8c0.2-3,1.7-2.3,4.7-2.6s3.5,1.6,3.5,1.6c-0.1,3,1.1,2.2,1.1,2.2
				c0.1-2.4,1.5-3.7,1.5-3.7c0.6,0.8,1.6-0.7,1.6-0.7c0.1-1.8,3.2-2.4,3.2-2.4c1.5,0.7,2.3-0.1,2.3-0.1c0-1.2,2.1-1.6,2.1-1.6
				c0,2.3,2.2,0.6,2.2,0.6s1.5,0.4,2-0.3c0.6-0.7-2-1.1-2-1.1l-0.4-1.1c-1.7-1.3,0.4-0.6,0.4-0.6c0.3,0.8,1.7,1.3,1.7,1.3
				c1.2,1.3,4.5,1.3,4.5,1.3c-0.6-0.1-0.9-2.1-0.9-2.1c1.5-1.6,0.3-2.1,0.3-2.1c-2.2-0.1-0.2-1.5-0.2-1.5c-2.3,0.1-2-2.4-2-2.4
				c0.6-1.9-1-2.1-1-2.1c-1.7,1.1-1.9-0.5-1.9-0.5c-1.1-3.2-4.4-3.8-4.4-3.8c-1.9-1.4-1,1.2-1,1.2c-0.8,0.4-0.1,3.2-0.1,3.2
				s-1.9-0.2-1.7,1c0.2,1.3-1.1,0.6-1.1,0.6c0-2.9-2.2-3-2.2-3c-0.3-1.1-1.1-1.9-1.1-1.9c-2.5,0.3-0.5-3.9,1.4-4.2
				c1.9-0.3,1.6-1.1,1.6-1.1l4.6-0.6c1.5-3.2-3.8-2.6-3.8-2.6c-0.9-1.2-1.7-2.6-2.2-2.8c-0.5-0.1-1.5,1.2-1.5,1.2l-2.9-0.5
				c-8.1,4-14.9,10.5-19.3,18.7c0.8,1,1.4,3.3,1.4,3.3l0.7,2.3c0,0,0.2,2.7,1.8,4.5c1.6,1.8,0.1-2.2,0.1-2.2
				c0.6-1.3-0.4-2.2-0.4-2.2c0.6-1.7,1.3,1.2,1.3,1.2c0.2,1.6,1.5,4,1.5,4l0.7,3.7l1.4,0.7c1.5,2.2,3.7,2,3.7,2.7
				c-0.1,0.7,2.3,4.1,3.8,5.3c1.5,1.1,0.5,3.3,0.5,3.3c-2.4,0.4-2.4,3.9-2.4,3.9c-1.4,1.2,0,3.3,0,3.3s-1.7,0.5,0.8,2.8s1,3.9,1,3.9
				l-1,3.3c-2.1-1-2.9,5-2.9,5c-3.3,3.5-1.2,3.8-1.2,3.8c-0.4,0-0.7,0.9-0.8,1.5c1,0.9,2.1,1.7,3.2,2.5l0.3-1.2
				c2,0.2,2.1-2.5,2.1-2.5c3,1,5.5-1.5,5.5-1.5l1,0.3l0.3-1.2c1.6,0.1,4-1.7,4-1.7c0.5-1.7,1.6-0.7,1.6-0.7c0-0.5,1.3-1.5,1.3-1.5
				c3.5-0.5,3.7-1.5,3.7-1.5s2.3-2.9,4.8-4.7C393.3,72.7,388.9,71.1,388.9,71.1z"/>
			<path style="fill:#006696;" d="M370.8,49.3c0,0,1.3-0.6,2.5,0.3c1.2,0.9,3.7,3.8,1.1,2.7l-1.8-1.6
				C372.6,50.8,371.3,49.3,370.8,49.3z"/>
			<path style="fill:#006696;" d="M379.3,21.8c1.9,1-1,1.7-0.2,0.2"/>
			<path style="fill:#006696;" d="M378.1,23.9c0.2,0.3,0.5,0.5,0.9,0.5c0,1.1-1.1,0.6-1.7,0.3c0.1-0.3,0.4-0.5,0.7-0.6"/>
			<path style="fill:#006696;" d="M380,24.8c0.3,0.2,0.5,0.4,0.5,0.7c-0.8,0.2-1.2-0.3-0.8-1.1c0,0.4,0.3,0.2,0.5,0.4"/>
			<path style="fill:#006696;" d="M386.1,18.8c-0.1,0.3-0.1,0.5,0,0.7c1.1-0.9,1,0.9,0.4,1.4c-0.5,0.4-2.4,0.2-1.3,1.4
				c-0.3,0.1-0.4,0.4-0.7,0.5c0.1,0.8,0.7,0.5,1.2,0.9c0.7,0.5,0.4,0.5,0.8,1.2c0.3,0.5,1.6,1.5,1.2,2c0.7,0.3,1.4,0,2-0.4
				c-0.7-0.5-1-1.8-0.6-2.6c0.9,0.2,2.6,0.1,2.1,1.3c0.3-0.2,0.5-0.5,0.5-0.9c0.4,0.2,0.8,0.4,1.3,0.4c-0.4-0.3-0.5-0.7-0.8-1
				s-0.8-0.4-1.1-0.7c-0.2-0.2-0.5-0.5-0.7-0.7c-0.4-0.5-0.2-0.3-0.4-0.9c-0.1-0.5,0.1-0.6-0.3-1.2c-0.2-0.2-0.7-0.5-0.9-0.6
				c-0.9-0.5-1-0.9-1.7-1.6c-0.4,0.3-0.5,0.3-0.8,0.7"/>
			<path style="fill:#006696;" d="M379.2,13.1c0.1,0,0.1-0.1,0.1-0.1c-0.3,1-0.7,2-0.7,3c0.6-0.2,1.3-0.3,1.7,0.2
				c0.1-0.2,0.3-0.5,0.3-0.7c0.4,0.6,2.9,3.3,2.9,1c-0.4-0.5-1.1-1.1-1.1-1.8c0.5-0.6,2.7-0.9,3.5-0.9c-0.3-0.9-0.8-1.5-1-2.4
				c-2,0.3-4,0.8-5.9,1.4C379,12.9,379.1,13,379.2,13.1z"/>
			<path style="fill:#006696;" d="M397,23.5c0,0.1,0,0.3,0.1,0.4C397,23.7,397,23.6,397,23.5z M403,12.3c-4.3-1.1-8.5-1.6-12.7-1.4
				c-0.2,0.8,1.2,1.6,2,1.5c0.1,0.7-0.4,1-0.1,1.8c0.3,0.7,0.8,0.8,1.4,1.1c1.2,0.5,2.9,0.8,3.3,2c0.1,0.3-0.1,0.7,0,1
				s0.4,0.5,0.4,0.7c0.1,0.6,0.2,1.3,0,1.9s-0.7,0.8-0.8,1.5c-0.1,0.6,0.3,0.7,0.4,1.1c0-0.5,0.4-0.9,0.5-1.5c0.1,0,0.4,0.3,0.5,0.4
				c-0.2,0.5-0.2,1-0.2,1.5c1.4,0.2,0.8,1.1-0.1,1.3c-0.2-0.2-0.4-0.2-0.6-0.2c-0.5,0.9,0,1.7-0.1,2.5c-0.1,1-0.7,2.1-0.1,3.1
				c0.3,0.6,1.4,1.2,2,1.7c0.5,0.5,0.5,0.6,1.1,0.7c0.6,0.1,1.3-0.3,1.8-0.6c0.7-0.6,1.2-1.6,2-2.1c1.1-0.7,1.8,0,3,0.2
				c0.9,0.1,1.5-0.6,2.4-0.8c0.9-0.2,2.3-0.3,3.2-0.3c0.6,0,1.1,0.5,1.5-0.1s-0.8-1,0.3-1.5c0.8-0.3,1.1,0.7,1.5-0.3
				c0.2-0.6-0.5-1.1,0.1-1.8c0.9,0.2,2-0.7,2.2-1.5c0.1-0.4-0.3-1.1,0-1.5c0.5-0.5,0.9,0.1,1.3,0.1c0.6,0,1.2-0.5,1.6-1.1
				C415.7,17.3,409.7,14.1,403,12.3z"/>
			<path style="fill:#006696;" d="M389.8,40c1.2,0.3,0.2,1.5,0.7,2.3c0.5-0.3,0.8-0.7,1.3-0.7s1.2,0.3,1.7,0.4
				c0.4-0.7-0.8-1-0.8-1.9c-1,0.5-2-0.5-2.7,0"/>
			<path style="fill:#006696;" d="M376.7,52.7c0,0,1.9,1,0.8,1.3c-0.4,0.1-1.3-0.7-1.9-0.6c0.6,0.2,0.9-0.3,0.9-0.8"/>
			<path style="fill:#006696;" d="M378.8,54c0.3,0,0.6,0.2,0.9,0.3c0,0.5-0.2,0.9-0.5,1.2c-0.5-0.3-0.8-0.9-0.5-1.4"/>
			<path style="fill:#006696;" d="M427.9,44.1c1.3,0.3,1.3,0.3,1.2,1.7c-0.1,1.6,0.3,1.3,1.6,0.9c1.1-0.3,1.7-0.3,2.2-1.4
				c0.2-0.4,0.1-0.8,0.3-1.2c0.2-0.7,0.4-0.5,0.8-0.9c0.1-0.1,0.1-0.1,0.2-0.2c-0.5-1.6-1-3.2-1.7-4.8c-0.6,0.5-0.5,1.2-2,0.5
				c-0.1,0.8-1.6,2.5-2.2,1.6c-0.6,0.3-1.8,1.1-1.9,1.8c-0.2,0.6,0.1,1.1,0.5,1.6C427.3,44.3,427,43.9,427.9,44.1z"/>
			<path style="fill:#006696;" d="M417.4,43.5c1,0.1,0.7,1.6,1.5,2.1c0,0.2,0,0.4-0.1,0.5c-1.1-0.2-1.6,0.8-2.8,0.6
				c0.6-0.8,0.5-2.8,1.5-3"/>
			<path style="fill:#006696;" d="M425.6,58.3c0.1,0.9,0.9,0.7,1.6,0.3c0.2-0.1,0.6-0.2,0.7-0.3s0-0.5,0.2-0.6
				c0.3-0.2,0.2-0.7,0.8-0.3c1,0.7-0.4,4.2,1.8,3.5c0.8-0.2,0.7-1,1.6-1.4c0.7-0.3,1.8,0,2.5,0c0.1-0.4-0.2-1.2-0.1-1.6
				c0.2-0.3,0.6-0.4,1.1-0.6c0.2-3.5,0-7-0.6-10.4c-0.3,0-0.6,0-0.8,0.1c-0.5,0.2-0.4,0.3-0.9,0.7c-0.7,0.6-1.1,1-2.1,1
				c-0.8,0-1.6-0.2-2.2-0.7c-0.5-0.4-1.2-2.1-1.9-2.3c-0.6-0.1-1.7,1.2-2.3,1.5c-0.8,0.3-1.8,0.5-2.6,0.8c-1,0.4-1.6,0.5-2.6,0.5
				c-0.7,0-2.3,0.1-1.6,1.3c0.1,0,0.2-0.1,0.3-0.1c0,0.6,0.1,0.9-0.2,1.5c-0.2,0.4-0.9,0.5-1.1,1c-0.6-0.6-1.7-0.4-2.1-1.2
				c-1.1,1.1-2.1,2.1-2.5,3.8c1,0.3,1.4,1.5,2.3,1.8c0.7,0.3,2.4,0.1,3.2-0.1c0.3-0.1,1.1-0.5,1.4-0.8c0.5-0.3,0.6-1.1,0.9-1.3
				c0.5-0.3,1,0.1,1.5,0.1c0.7,0,1.2-0.2,1.9-0.4c0.6,0.6,1.4,0.8,1.9,1.7C426.1,56.6,425.4,57.3,425.6,58.3z"/>
			<path style="fill:#006696;" d="M435.4,60.4c-0.2,0.2-0.3,0.3-0.6,0.4c-0.6,0.3-1.5-0.1-2.1,0c-0.9,0.1-2.7,0.7-2.7,1.9
				c0.5,0.3,0.9,0.5,1.4,0.2c-0.1-0.2,0-0.7-0.1-0.9c0.9,0,0.3,0.5,0.6,0.9c0.4,0.4,0.8,0.4,1.2,0.7c0.5,0.2,1,0.6,1.5,0.7
				C435,63.1,435.2,61.8,435.4,60.4z"/>
			<path style="fill:#006696;" d="M433.7,68c-0.3-0.8-0.3-1.8-0.8-2.6c-0.7-1-1.7-1.5-2.7-1.3c-1.1,0.2-1.8,0.6-2.9,0
				c-0.4-0.2-0.6-0.6-1.2-0.8c-0.8-0.4-0.7-0.2-1.3-1c-0.5-0.6-1.4-1.6-1.7-2.4c-0.2-0.9,0.3-2-1.1-2.3c-0.2,0-1.1,0.1-1.4,0.1
				c-0.5,0-0.9-0.1-1.4-0.2c-1.1-0.2-2.1,0-3.2-0.1c-1.2-0.1-1.8-0.7-3-0.1c-0.4,0.2-1.3,0.4-1.6,0.6c-0.4,0.3-0.6,1.1-1,1.5
				c-0.3-0.1-1.3-0.3-1.6-0.2c-0.7,0.2-0.7,0.7-1.1,1.2c-0.8,0.9-1.9,1.5-2.8,2.3c0.5,1.1,0,1.4-0.4,2.4c-0.5,1.2-0.5,1.7,0.1,2.8
				c0.5,0.9,0.5,2.1,1,2.9c0.3,0.5,0.7,0.7,1,1.1c0.2,0.3,0.1,0.8,0.4,1.2c0.6,0.7,1.9,0.8,2.6,1c0.4,0.1,0.5,0.5,1.1,0.3
				c0.7-0.2,0.8-0.7,1.5-0.8c0.4,0,1.1,0.4,1.4,0.6c0.1,0.1-0.1,0.4,0.1,0.6s0.5,0.1,0.8,0.3c0.5,0.4,2,1.1,1.9,1.9
				c0,0.1-0.6,0.8-0.7,0.9c-0.4,0.4-0.6,0.5-1,1.1c-0.5,0.6-0.5,0.3-0.5,1.1c0,0.1,0.2,1.1,0.2,1.2c0.3,1.1,0.9,1.5,1,2.6
				s0,1.7-0.9,2.4c-1,0.9-0.9,1.5-1.1,2.9c-0.1,0.9-1,2-1.1,3c0,0.5,0.1,0.9,0.1,1.3C422.3,88.4,430.1,79.4,433.7,68z"/>
		</g>
		<g>
			<polygon style="fill:#006696;" points="4.8,33.6 43.3,33.6 43.3,44.5 18.4,44.5 18.4,55.2 39.9,55.2 39.9,65.7 18.4,65.7 
				18.4,85.9 4.8,85.9 			"/>
			<path style="fill:#006696;" d="M94.7,64.3c0,15.2-7,22.7-22.8,22.7s-22.8-7.5-22.8-22.7V33.6h13.6v31.5c0,6.7,2.5,10.2,9.2,10.2
				s9.2-3.4,9.2-10.2V33.6h13.6L94.7,64.3L94.7,64.3z"/>
			<polygon style="fill:#006696;" points="103.6,33.6 117.6,33.6 135.8,65.8 135.9,65.8 135.9,33.6 148.7,33.6 148.7,85.9 
				134.7,85.9 116.6,53.3 116.4,53.3 116.4,85.9 103.6,85.9 			"/>
			<rect x="158" y="33.6" style="fill:#006696;" width="13.6" height="52.3"/>
			<path style="fill:#006696;" d="M181.1,33.6h24.5c9-0.1,18.9,2.2,18.9,13.1c0,4.7-2.8,8.5-6.9,10.6c5.6,1.6,9,6.4,9,12.4
				c0,12.4-9.2,16.3-20.4,16.3h-25.1V33.6L181.1,33.6z M194.7,54.2h10.5c2.3,0,5.6-1.2,5.6-5s-2.7-5-5.6-5h-10.5V54.2z M194.7,74.9
				h10.9c4.3,0,7.3-1.5,7.3-5.9c0-4.6-3.2-6.2-7.3-6.2h-10.9V74.9z"/>
			<polygon style="fill:#006696;" points="233.9,33.6 275.6,33.6 275.6,44.5 247.6,44.5 247.6,53.6 273.2,53.6 273.2,64.2 
				247.6,64.2 247.6,74.1 276.3,74.1 276.3,85.9 233.9,85.9 			"/>
			<path style="fill:#006696;" d="M284.1,33.6h26.6c9.2,0,18.3,4.2,18.3,14.7c0,5.6-2.7,11-8.2,13.1v0.1c5.6,1.3,7.2,7.5,7.6,12.5
				c0.1,2.2,0.4,9.9,2.2,11.8h-13.5c-1.2-1.8-1.4-6.9-1.5-8.3c-0.4-5.3-1.2-10.7-7.6-10.7h-10.3v19h-13.6V33.6L284.1,33.6z
				 M297.7,56.3h11.4c4.1,0,6.3-2.2,6.3-6.2c0-3.9-3.1-5.6-6.9-5.6h-10.8V56.3L297.7,56.3z"/>
		</g>
	</g>
</g>
</svg>
